<svg width="120" height="52" viewBox="0 0 120 52" fill="none" xmlns="http://www.w3.org/2000/svg">
<g clip-path="url(#clip0_1_256)">
<path d="M48.8738 22.3428C47.4056 18.7206 43.2904 17.2457 39.8952 19.3104C37.4988 20.7678 36.2818 23.3241 35.8707 26.0322C35.7901 26.5648 35.7881 27.1028 35.7256 27.6348C35.7142 27.7295 35.6867 27.8268 35.592 27.7342L33.8564 25.282C35.3273 23.8608 36.7956 22.0527 36.6659 19.8759C37.9448 20.5442 37.6499 18.7616 37.48 18.0201C37.1764 16.6997 36.365 16.161 35.9406 15.1267C35.6746 14.4778 35.5631 13.4757 35.3556 12.7564C34.9996 11.5239 34.5093 10.2565 33.8504 9.15638L33.845 9.06369C37.7936 7.41882 36.5719 1.31623 32.1296 1.6722C30.5526 1.79847 29.3537 3.08199 28.7069 4.42663C25.5696 2.9208 21.8118 2.68169 18.467 3.61998C17.8914 1.87907 16.2935 0.679508 14.4176 1.01936C11.3911 1.5681 10.9344 5.49187 12.9541 7.41614C12.1454 8.29062 11.557 9.34713 11.0641 10.4271C10.6832 11.2613 10.4361 12.1593 9.96188 12.9519C9.40105 13.8902 8.58433 14.3375 7.95835 15.1797C7.67156 15.5652 6.77222 16.7695 7.58425 16.9549C7.02611 18.5178 7.26656 20.3118 8.05306 21.7551C2.00755 20.9478 -1.94308 27.2848 0.989334 32.5472C1.43799 33.3525 2.05725 34.0833 2.78331 34.6488C3.00696 34.8227 3.67525 35.1908 3.78473 35.3265C3.90832 35.4796 4.05608 35.9551 4.19645 36.1909C5.71304 38.7398 10.3924 39.4007 12.8211 37.8754C12.0386 39.4396 12.2797 41.3371 13.2247 42.7777C11.2662 42.6515 9.02359 43.9645 8.79926 46.0426C8.68105 47.1374 9.16128 47.4813 10.1775 47.6055C12.8318 47.9306 17.6556 47.7896 20.2777 47.2455C20.6303 47.1723 21.3833 46.8775 21.6526 46.8755C22.1274 46.8708 22.8474 47.1683 23.3613 47.1495C23.3599 47.6479 23.8119 47.9588 24.2411 48.1167C25.8779 48.7185 30.928 48.4384 32.7946 48.2107C34.5751 47.9938 37.6909 47.529 37.1509 45.0365L37.2301 44.9257C38.4075 44.0821 39.6554 43.3412 40.7939 42.4406C46.1039 38.2408 51.6746 29.2534 48.8731 22.3422L48.8738 22.3428ZM17.0464 4.19357L16.1451 4.6879C15.8321 4.26342 15.4728 3.83693 14.8844 3.97193C14.4935 4.06126 14.2873 4.5838 14.5868 4.87932C14.7454 5.03515 15.2075 5.01768 15.3069 5.29977L13.9374 6.30523C11.414 3.55483 15.5641 0.505551 17.0464 4.19357ZM11.8029 32.5915C11.2454 33.3532 9.86583 34.5191 8.92821 34.6938C8.85568 34.7072 8.80933 34.7321 8.75896 34.6542L8.25455 33.8468C13.2744 32.5727 13.2933 25.0126 8.05641 24.0696C4.19242 23.3745 1.31508 27.1727 2.71413 30.7552C3.0795 31.6908 3.86466 32.7326 4.76131 33.1752C4.55377 33.4136 4.19713 33.5587 4.15615 33.9133C-0.374783 31.1831 0.907393 23.8292 6.28192 23.042C11.5806 22.2663 14.9361 28.3131 11.8029 32.5929V32.5915ZM35.821 42.8409C35.6141 43.1404 34.7833 43.9531 34.8639 44.2722C34.9197 44.4918 35.2205 44.7665 35.2514 45.1036C35.2944 45.5631 35.0076 45.9775 34.6852 46.2723C34.2144 46.7035 33.669 46.7532 33.0525 46.856C31.3881 47.1327 29.6855 47.1636 28.001 47.1434C28.1159 46.5551 28.2865 45.9137 28.7391 45.4979C27.9721 45.4106 27.4644 46.4866 27.32 47.1354L25.9854 47.077C25.8054 46.8943 26.3474 45.3387 26.7914 45.3293C26.8108 45.2185 26.6214 45.2528 26.5556 45.2615C25.8537 45.3589 25.3077 46.3569 25.2459 47.0098C24.7381 46.8775 24.4104 46.9003 24.456 46.2575C24.5266 45.2689 25.3198 44.6617 26.1896 44.3588C27.5308 43.8913 29.1925 43.9713 30.5519 44.3225C30.5835 44.1774 30.4807 44.1701 30.3968 44.1089C29.7728 43.6576 28.6404 43.1881 27.8815 43.0645C27.682 43.0323 27.2588 43.0981 27.1601 42.9799C26.3568 40.8985 27.105 38.5994 28.9474 37.377C30.2618 36.5045 31.7669 36.297 33.307 36.5979C33.0854 36.2648 32.6824 36.1788 32.3325 36.0613C32.2633 36.0377 32.2069 36.1116 32.231 35.9598C32.2411 35.896 32.7025 35.3278 32.7979 35.1834C33.3144 34.3976 33.7067 32.7393 33.444 31.7936C33.4185 31.7016 33.436 31.5847 33.3077 31.5612C33.129 32.2214 32.7516 33.3693 32.2901 33.869C31.6104 34.6051 29.9723 35.491 29.0273 35.845C28.0568 36.2077 26.0552 36.5858 25.3863 37.3757C25.1492 37.6557 24.5299 38.9144 23.9718 38.3771C23.4654 37.8888 24.2304 36.7148 24.3063 36.1956C23.4049 36.3924 22.8649 37.5396 23.0301 38.4114C22.0072 38.0534 22.2228 36.8383 22.5801 36.0465C22.6433 35.9074 23.0301 35.3379 23.0288 35.2875C23.0261 35.1834 22.9166 35.215 22.8454 35.2358C22.4814 35.3399 22.1892 35.7449 21.928 35.9995L21.4189 36.8666C21.2577 34.9833 22.5868 33.8132 24.1726 33.1403C25.2506 32.6829 26.5858 32.5432 27.1843 31.3832C27.283 31.1918 27.5295 30.5672 27.5295 30.3852V29.1426C27.1661 29.6255 26.9156 30.189 26.52 30.6518C25.5374 31.8003 24.3754 31.7365 23.1625 32.3988C21.7661 33.1611 20.4342 34.6071 20.4356 36.2842C20.4356 36.9686 20.68 37.9788 21.4175 38.2105C21.4477 38.3267 21.2812 38.2401 21.2805 38.3119C21.2778 38.4758 22.0421 39.1717 22.2013 39.2737C22.6668 39.572 22.9059 39.4007 23.3183 39.4873C23.3418 39.492 23.5641 39.7452 23.6803 39.8091C24.2875 40.1449 24.8577 40.0764 25.4185 39.6868C25.4286 39.2852 25.1855 39.1253 25.6489 38.8808C25.5811 39.1092 25.8417 39.2684 25.845 39.4497C25.8477 39.6042 25.6543 40.0045 25.6126 40.2208C25.4212 41.2195 25.4702 42.3452 25.7832 43.3104C25.1116 43.5387 24.4131 43.8718 23.9906 44.4562C21.5042 44.6798 17.7658 43.9592 16.1914 41.8576C14.4371 39.5162 13.9051 36.2063 14.1657 33.3397C14.251 32.4001 14.9657 28.4448 15.5036 27.8436C15.5648 27.7758 15.6736 27.7946 15.7381 27.7281C15.8247 27.6388 16.225 27.1445 16.2955 27.1256C16.6851 27.0195 17.1579 27.1827 17.5226 27.0256C16.6784 26.5527 15.775 26.19 14.9254 25.7273C14.3444 25.4109 13.3618 24.8817 12.8553 24.5062C12.5625 24.2899 12.3315 23.8957 12.0507 23.6317C11.0533 22.6934 9.96793 22.3529 9.23314 21.1433C8.35866 19.7019 8.02955 17.7515 8.86844 16.2221C9.26941 15.4907 9.93031 15.0084 10.4374 14.3657C11.7585 12.6933 12.0285 10.4197 13.3705 8.56734C17.1196 3.39229 24.3741 3.31908 29.5438 6.30456C29.8897 5.15604 30.4713 3.76775 31.6481 3.27005C33.9652 2.29079 35.7861 5.12716 34.2802 6.97688C33.71 7.67674 32.7449 8.07167 31.863 8.18786C31.7663 8.20062 31.6655 8.1254 31.6937 8.28525C32.9101 9.79713 33.7819 11.808 34.1996 13.7055C34.3031 14.1743 34.3393 14.9769 34.5019 15.351C34.6967 15.799 35.3972 16.4357 35.6988 16.9079C36.0238 17.417 36.3174 18.0591 36.3946 18.6629C36.0628 18.4836 35.7122 18.3042 35.3206 18.3277C35.2877 18.3519 35.3878 18.4137 35.3878 18.4278V19.8383C35.3878 19.9061 34.878 20.9095 34.7947 21.0587C33.5152 23.355 31.3351 24.922 28.9856 25.9959C28.5961 26.1739 28.1421 26.3707 27.731 26.4547C27.7135 26.628 27.7297 26.5621 27.8291 26.5903C27.9097 26.6139 28.2777 26.7227 28.3019 26.7227H30.0146L29.6123 26.8563C30.7407 26.8415 32.0376 26.9779 33.0625 27.4695C33.3917 27.6274 33.6556 27.896 34.0096 28.0001C37.128 32.5492 39.3129 37.7847 35.8197 42.8375L35.821 42.8409ZM14.0307 26.9282L14.5667 27.1619L14.2329 27.7335L14.0307 26.9282Z" fill="#004B29"/>
<path d="M27.5309 29.144C27.1675 29.6269 26.917 30.1904 26.5214 30.6532C25.5388 31.8017 24.3768 31.7379 23.1638 32.4001C21.7675 33.1624 20.4356 34.6085 20.4369 36.2856C20.4369 36.97 20.6814 37.9802 21.4189 38.2119C21.4491 38.3281 21.2825 38.2414 21.2819 38.3133C21.2792 38.4772 22.0435 39.173 22.2027 39.2751C22.6681 39.5733 22.9072 39.402 23.3196 39.4887C23.3431 39.4934 23.5655 39.7466 23.6817 39.8104C24.2888 40.1462 24.8591 40.0777 25.4199 39.6882C25.43 39.2865 25.1868 39.1267 25.6503 38.8822C25.5824 39.1105 25.843 39.2697 25.8464 39.4511C25.8491 39.6056 25.6556 40.0059 25.614 40.2221C25.4226 41.2209 25.4716 42.3465 25.7846 43.3117C25.1129 43.5401 24.4144 43.8732 23.992 44.4575C21.5055 44.6812 17.7671 43.9605 16.1928 41.8589C14.4384 39.5176 13.9065 36.2077 14.1671 33.3411C14.2524 32.4015 14.967 28.4461 15.505 27.845C15.5661 27.7772 15.6749 27.796 15.7394 27.7295C15.8261 27.6401 16.2264 27.1458 16.2969 27.127C16.6864 27.0209 17.1593 27.1841 17.524 27.0269C16.6797 26.5541 15.7764 26.1914 14.9267 25.7286C14.3457 25.4123 13.3631 24.883 12.8567 24.5076C12.5639 24.2913 12.3328 23.897 12.0521 23.6331C11.0547 22.6948 9.96929 22.3543 9.23451 21.1446C8.36002 19.7033 8.03091 17.7528 8.8698 16.2235C9.27077 15.492 9.93168 15.0098 10.4388 14.367C11.7599 12.6946 12.0299 10.4211 13.3719 8.56869C17.121 3.39364 24.3755 3.32043 29.5451 6.30591C29.891 5.15739 30.4727 3.76909 31.6494 3.2714C33.9666 2.29214 35.7874 5.12851 34.2816 6.97823C33.7114 7.67809 32.7462 8.07302 31.8643 8.18921C31.7676 8.20197 31.6669 8.12675 31.6951 8.2866C32.9114 9.79848 33.7832 11.8094 34.201 13.7068C34.3044 14.1756 34.3407 14.9782 34.5033 15.3523C34.698 15.8003 35.3986 16.437 35.7001 16.9092C36.0252 17.4183 36.3187 18.0604 36.396 18.6642C36.0642 18.4849 35.7136 18.3056 35.322 18.3291C35.2891 18.3533 35.3892 18.4151 35.3892 18.4292V19.8396C35.3892 19.9075 34.8794 20.9109 34.7961 21.06C33.5166 23.3564 31.3364 24.9233 28.987 25.9973C28.5974 26.1753 28.1434 26.3721 27.7324 26.456C27.7149 26.6293 27.731 26.5635 27.8304 26.5917C27.911 26.6152 28.2791 26.724 28.3033 26.724H30.016L29.6137 26.8577C30.742 26.8429 32.039 26.9792 33.0639 27.4709C33.393 27.6287 33.657 27.8974 34.0109 28.0015C37.1294 32.5506 39.3143 37.7861 35.821 42.8389C35.6142 43.1384 34.7833 43.9511 34.8639 44.2701C34.9197 44.4898 35.2206 44.7645 35.2515 45.1016C35.2944 45.5611 35.0077 45.9755 34.6853 46.2703C34.2144 46.7015 33.6691 46.7512 33.0525 46.854C31.3881 47.1307 29.6855 47.1616 28.001 47.1414C28.1159 46.5531 28.2865 45.9117 28.7392 45.4959C27.9721 45.4086 27.4644 46.4846 27.32 47.1334L25.9854 47.075C25.8054 46.8923 26.3474 45.3367 26.7914 45.3273C26.8109 45.2165 26.6215 45.2508 26.5556 45.2595C25.8538 45.3569 25.3077 46.3549 25.2459 47.0078C24.7382 46.8755 24.4104 46.8983 24.4561 46.2555C24.5266 45.2669 25.3198 44.6597 26.1896 44.3568C27.5309 43.8893 29.1925 43.9692 30.5519 44.3205C30.5835 44.1754 30.4807 44.1681 30.3968 44.1069C29.7728 43.6556 28.6404 43.1861 27.8815 43.0625C27.682 43.0303 27.2589 43.0961 27.1601 42.9779C26.3568 40.8965 27.105 38.5974 28.9474 37.375C30.2618 36.5025 31.767 36.295 33.307 36.5959C33.0854 36.2628 32.6824 36.1768 32.3325 36.0592C32.2633 36.0357 32.2069 36.1096 32.2311 35.9578C32.2411 35.894 32.7026 35.3258 32.7979 35.1814C33.3144 34.3956 33.7067 32.7373 33.4441 31.7916C33.4185 31.6996 33.436 31.5827 33.3077 31.5592C33.1291 32.2194 32.7516 33.3673 32.2902 33.867C31.6105 34.6031 29.9723 35.489 29.0273 35.843C28.0568 36.2057 26.0553 36.5838 25.3863 37.3737C25.1492 37.6537 24.5299 38.9124 23.9718 38.3751C23.4654 37.8868 24.2304 36.7128 24.3063 36.1936C23.4049 36.3904 22.8649 37.5375 23.0302 38.4093C22.0072 38.0514 22.2228 36.8363 22.5802 36.0445C22.6433 35.9054 23.0302 35.3359 23.0288 35.2855C23.0255 35.1814 22.9166 35.213 22.8455 35.2338C22.4814 35.3379 22.1893 35.7429 21.928 35.9975L21.4189 36.8646C21.2577 34.9813 22.5869 33.8112 24.1726 33.1383C25.2506 32.6809 26.5859 32.5412 27.1843 31.3812C27.283 31.1898 27.5295 30.5652 27.5295 30.3831V29.1406L27.5309 29.144ZM33.2835 5.81426C33.6456 5.45493 33.2835 4.90217 32.8664 4.83433C32.1243 4.7141 31.4976 5.26217 31.1457 5.85994C30.7937 6.4577 30.4357 7.33823 31.2908 7.65122C31.3727 7.08838 31.775 6.44897 32.2848 6.19307C32.5763 6.04665 33.0908 6.00501 33.2829 5.81426H33.2835ZM15.6252 7.53368C14.9664 7.63779 13.9401 8.38197 13.7923 9.05832C13.5445 10.1927 14.5378 9.20743 14.8824 9.00728C15.1934 8.8266 15.5762 8.6278 15.9443 8.65735C16.2532 8.6822 16.7207 9.00123 16.89 8.46056C17.1109 7.756 16.2022 7.44234 15.6252 7.53368ZM24.9954 8.84541C25.1338 8.96967 25.8457 8.78429 26.0875 8.78899C27.0043 8.80646 28.0877 9.4284 28.6539 10.1269L28.8748 10.1048C29.214 9.93281 28.8722 9.21415 28.7277 8.97302C28.0984 7.91921 26.3038 7.12129 25.2238 7.92995C24.9927 8.10324 24.7563 8.63116 24.9954 8.84474V8.84541ZM16.761 11.2351C15.2525 9.67221 13.1898 11.176 12.7862 12.9552C12.5336 14.0688 12.4933 15.9071 13.8292 16.3148C12.8977 15.398 12.8641 13.649 13.4585 12.5529C14.3545 10.9013 16.5635 10.8805 16.7838 12.9572C14.7709 11.2432 13.1872 14.4443 14.5029 16.0112C15.0564 16.6708 15.5823 16.4303 16.3143 16.2483C15.7837 17.916 17.2761 19.127 18.6349 19.7402C18.6833 20.4381 18.4374 20.8625 17.7913 21.1164C16.7194 21.5382 15.7911 21.1863 15.1168 20.2997C14.9556 20.0875 14.6285 19.3527 14.5352 19.2694C14.3209 19.0786 14.2013 19.2096 14.1718 19.4427C14.0475 20.4454 14.7682 21.6027 15.6635 22.0352C15.8865 22.1427 16.3278 22.1998 16.4789 22.3617C16.6576 22.5537 17.0283 23.5659 17.2191 23.9051C18.2265 25.7011 19.6901 26.8046 21.8541 26.5225C24.6394 26.1598 26.0647 22.7297 26.6577 20.344L27.2817 20.6711C27.8828 20.1042 26.9398 19.211 26.3468 19.0746C26.0217 19.0001 24.9464 19.088 24.8523 19.4501C24.8288 19.7745 25.3527 19.7745 25.5831 19.8074C24.6952 21.5671 22.4237 22.0957 20.6626 21.4025C19.911 21.107 19.4503 20.6268 19.3368 19.8074C21.5828 19.5951 24.1223 16.6023 21.0333 15.3228C19.7243 14.7808 18.1453 14.8573 16.9195 15.5753C16.8819 15.5317 17.1116 15.2046 17.1526 15.1038C17.5817 14.0561 17.5885 12.0915 16.7603 11.2331L16.761 11.2351ZM27.6652 17.188C29.5102 16.8414 29.6304 14.68 29.206 13.1963C28.8231 11.8604 27.5268 10.8913 26.1197 11.2439C24.3305 11.6925 23.5896 13.5718 23.7031 15.2731C23.7743 16.3423 24.0625 16.7285 24.9766 17.2235C25.0612 17.2692 25.1089 17.3626 25.2473 17.3216C25.2137 17.2135 25.07 17.1947 24.9753 17.0906C23.6991 15.6835 23.9772 12.6456 25.9491 12.0129C28.5054 11.1928 29.5969 14.7935 28.2979 16.5109C28.1132 16.7554 27.8345 16.9287 27.6659 17.188H27.6652ZM26.9103 13.0425C25.1344 13.109 24.757 16.3773 26.2185 17.1913C26.9183 17.5809 27.4738 17.3397 27.9318 16.7507C28.8063 15.625 28.7069 12.9754 26.9103 13.0425ZM23.501 27.3983C22.8052 27.6207 21.9844 27.9652 21.2496 28.0008C20.7613 28.0243 20.2838 27.8813 19.8069 27.8336C20.9427 28.9391 22.6782 28.7531 23.5003 27.3977L23.501 27.3983Z" fill="#68CB3D"/>
<path d="M8.25454 33.8463C13.2744 32.5721 13.2932 25.0121 8.05641 24.0691C4.19241 23.3739 1.31507 27.1721 2.71412 30.7547C3.07949 31.6903 3.86465 32.732 4.7613 33.1746C4.55376 33.413 4.19712 33.5581 4.15615 33.9128C-0.374791 31.1825 0.907385 23.8286 6.28191 23.0415C11.5805 22.2657 14.9361 28.3126 11.8029 32.5923C11.2454 33.3539 9.86582 34.5199 8.9282 34.6945C8.85567 34.708 8.80932 34.7328 8.75895 34.6549L8.25454 33.8476V33.8463Z" fill="#B1EB54"/>
<path d="M14.5868 4.87867C14.7454 5.0345 15.2074 5.01703 15.3069 5.29913L13.9374 6.30458C11.414 3.55419 15.5641 0.504903 17.0464 4.19292L16.1451 4.68726C15.8321 4.26277 15.4727 3.83628 14.8844 3.97128C14.4935 4.06061 14.2873 4.58315 14.5868 4.87867Z" fill="#68CB3D"/>
<path d="M14.2329 27.7335L14.0307 26.9282L14.5667 27.162L14.2329 27.7335Z" fill="white"/>
<path d="M16.761 11.2352C17.5891 12.0936 17.5824 14.0581 17.1532 15.1059C17.1122 15.2067 16.8825 15.5331 16.9201 15.5774C18.1459 14.8594 19.7249 14.7828 21.034 15.3249C24.1229 16.6044 21.5834 19.5972 19.3374 19.8095C19.4509 20.6295 19.9117 21.1091 20.6632 21.4046C22.4243 22.0978 24.6958 21.5692 25.5837 19.8095C25.3534 19.7765 24.8301 19.7765 24.853 19.4521C24.947 19.0901 26.0223 19.0021 26.3474 19.0767C26.9405 19.213 27.8841 20.1063 27.2823 20.6732L26.6584 20.3461C26.0653 22.7318 24.6401 26.1619 21.8547 26.5246C19.6907 26.8067 18.2272 25.7032 17.2197 23.9072C17.0289 23.568 16.6582 22.5558 16.4795 22.3637C16.3284 22.2019 15.8871 22.1448 15.6642 22.0373C14.7689 21.6048 14.0482 20.4475 14.1724 19.4447C14.2013 19.211 14.3215 19.0807 14.5358 19.2715C14.6291 19.3547 14.9562 20.0895 15.1174 20.3018C15.7918 21.1877 16.7193 21.5403 17.7919 21.1185C18.4381 20.8639 18.6839 20.4395 18.6355 19.7423C17.2768 19.1297 15.7844 17.9181 16.315 16.2504C15.5829 16.4324 15.057 16.6729 14.5036 16.0133C13.1885 14.4463 14.7722 11.2446 16.7845 12.9593C16.5648 10.8826 14.3551 10.9034 13.4591 12.555C12.8647 13.6511 12.8976 15.4001 13.8299 16.3169C12.4933 15.9092 12.5336 14.0709 12.7868 12.9573C13.1905 11.1781 15.2531 9.67429 16.7616 11.2372L16.761 11.2352ZM15.8254 13.1722C15.3236 13.3213 15.4956 14.3389 16.1316 14.1548C16.6495 14.0051 16.4836 12.9768 15.8254 13.1722ZM19.4717 23.5693L18.9002 21.8922C18.5381 22.2415 17.986 22.1495 17.5226 22.1596C17.5555 23.3343 18.0331 24.3525 19.3099 24.5036C19.7867 24.56 20.7042 24.5083 21.0595 24.1523C21.2959 23.9152 21.6969 22.8043 21.4195 22.5955C21.1791 22.4141 19.8129 22.3523 19.4711 21.9587C19.5261 22.3886 19.5799 22.895 19.5792 23.3249C19.5792 23.3799 19.5658 23.5902 19.4711 23.5707L19.4717 23.5693Z" fill="#004B29"/>
<path d="M26.9103 13.0425C28.7076 12.9753 28.807 15.625 27.9318 16.7507C27.4738 17.3397 26.9183 17.5808 26.2185 17.1913C24.757 16.3779 25.1344 13.109 26.9103 13.0425ZM27.1776 13.7739C26.6268 13.8727 26.6692 14.8506 27.2857 14.8184C27.9621 14.7828 27.823 13.6584 27.1776 13.7739Z" fill="#004B29"/>
<path d="M27.6652 17.188C27.8338 16.9287 28.1125 16.7554 28.2972 16.511C29.5962 14.7942 28.5054 11.1929 25.9484 12.0129C23.9765 12.6456 23.6984 15.6835 24.9745 17.0906C25.0686 17.1947 25.213 17.2135 25.2466 17.3216C25.1082 17.3626 25.0605 17.2693 24.9759 17.2236C24.0618 16.7279 23.7736 16.3417 23.7024 15.2731C23.5889 13.5718 24.3298 11.6926 26.119 11.2439C27.5255 10.8913 28.8224 11.8605 29.2053 13.1964C29.6297 14.68 29.5102 16.8414 27.6645 17.188H27.6652Z" fill="#004B29"/>
<path d="M24.9954 8.84535C24.757 8.63109 24.9927 8.10317 25.2237 7.93056C26.3038 7.1219 28.0977 7.91981 28.7277 8.97363C28.8715 9.21408 29.214 9.93274 28.8748 10.1054L28.6539 10.1275C28.0877 9.42834 27.0043 8.80706 26.0875 8.7896C25.845 8.7849 25.1337 8.97027 24.9954 8.84602V8.84535Z" fill="#004B29"/>
<path d="M33.2835 5.81433C33.0914 6.00508 32.5769 6.04672 32.2855 6.19314C31.7763 6.44904 31.3734 7.08777 31.2914 7.65129C30.4364 7.3383 30.7931 6.46045 31.1463 5.86C31.4996 5.25955 32.1249 4.71417 32.8671 4.83439C33.2835 4.90223 33.6462 5.455 33.2842 5.81433H33.2835Z" fill="#004B29"/>
<path d="M15.6252 7.53378C16.2028 7.44244 17.1109 7.7561 16.8899 8.46066C16.7207 9.00066 16.2532 8.68163 15.9443 8.65745C15.5762 8.6279 15.1934 8.8267 14.8824 9.00738C14.5378 9.20753 13.5445 10.1935 13.7923 9.05842C13.9401 8.38207 14.9663 7.63789 15.6252 7.53378Z" fill="#004B29"/>
<path d="M23.5009 27.3984C22.6782 28.7532 20.9433 28.9399 19.8076 27.8343C20.2844 27.882 20.762 28.0251 21.2503 28.0016C21.9844 27.966 22.8051 27.6208 23.5016 27.3991L23.5009 27.3984Z" fill="#004B29"/>
<path d="M19.4717 23.5693C19.5664 23.5888 19.5799 23.3792 19.5799 23.3235C19.5799 22.8936 19.5268 22.3879 19.4717 21.9574C19.8136 22.3509 21.1797 22.4127 21.4202 22.5941C21.6976 22.8036 21.2966 23.9145 21.0602 24.151C20.7042 24.5076 19.7874 24.5587 19.3105 24.5022C18.0337 24.3511 17.5555 23.3336 17.5233 22.1582C17.9867 22.1488 18.5381 22.2401 18.9008 21.8909L19.4724 23.568L19.4717 23.5693Z" fill="white"/>
<path d="M15.8254 13.1723C16.4836 12.9769 16.6495 14.0052 16.1317 14.1549C15.4956 14.339 15.3237 13.3214 15.8254 13.1723Z" fill="white"/>
<path d="M27.1776 13.774C27.823 13.6578 27.9614 14.7822 27.2857 14.8185C26.6691 14.8514 26.6275 13.8734 27.1776 13.774Z" fill="white"/>
<path d="M13.3053 39.0422C13.3053 39.0422 14.2517 44.4039 19.6477 46.0857C16.3539 46.7164 11.868 46.4713 11.868 46.4713C11.868 46.4713 11.4126 45.175 13.1999 44.7539C11.7283 44.4033 10.9922 45.3033 10.8518 46.5176C9.80066 46.4357 9.48499 46.5176 9.48499 46.5176C9.48499 46.5176 9.90544 42.8262 15.4069 44.2629C13.4094 41.5998 13.1555 40.4083 13.3046 39.0415L13.3053 39.0422Z" fill="#68CB3D"/>
<path d="M53.7486 32.1853C52.4591 32.1853 51.8143 31.5473 51.8143 30.2711V19.8942C51.8143 18.618 52.4591 17.98 53.7486 17.98H58.6651C60.1964 17.98 61.3819 18.3124 62.2215 18.9774C63.061 19.6423 63.4808 20.5322 63.4808 21.6472C63.4808 22.386 63.2961 23.0308 62.9267 23.5815C62.5573 24.1323 62.0435 24.542 61.3853 24.8106C62.1778 25.0524 62.789 25.4588 63.2189 26.0297C63.6487 26.6006 63.8636 27.3092 63.8636 28.1554C63.8636 29.4047 63.417 30.3887 62.5237 31.1073C61.6304 31.826 60.4114 32.1853 58.8666 32.1853H53.7486ZM55.3606 23.6218H58.0001C58.6718 23.6218 59.1655 23.5009 59.4811 23.2591C59.7968 23.0173 59.9546 22.6479 59.9546 22.1509C59.9546 21.6539 59.7968 21.2878 59.4811 21.0528C59.1655 20.8177 58.6718 20.7002 58.0001 20.7002H55.3606V23.6218ZM55.3606 29.4652H58.3628C59.0479 29.4652 59.5483 29.3342 59.864 29.0722C60.1796 28.8103 60.3375 28.4174 60.3375 27.8935C60.3375 27.3696 60.1796 26.9801 59.864 26.7248C59.5483 26.4696 59.0479 26.342 58.3628 26.342H55.3606V29.4652Z" fill="white"/>
<path d="M69.9085 32.4071C68.6995 32.4071 67.6551 32.1955 66.7752 31.7724C65.8954 31.3493 65.2204 30.7481 64.7502 29.969C64.2801 29.1899 64.045 28.2698 64.045 27.2085C64.045 26.1473 64.27 25.3078 64.72 24.5287C65.17 23.7496 65.7879 23.1417 66.5737 22.7051C67.3596 22.2686 68.2562 22.0503 69.2637 22.0503C70.2712 22.0503 71.1208 22.2585 71.8529 22.6749C72.585 23.0913 73.1492 23.6858 73.5454 24.4581C73.9417 25.2305 74.1399 26.1339 74.1399 27.1682C74.1399 27.6921 73.8309 27.9541 73.213 27.9541H67.4704C67.5913 28.5989 67.8599 29.0623 68.2764 29.3444C68.6928 29.6265 69.2704 29.7675 70.0092 29.7675C70.2913 29.7675 70.6271 29.7339 71.0167 29.6668C71.4062 29.5996 71.7757 29.4922 72.1249 29.3444C72.5548 29.1832 72.9175 29.1798 73.213 29.3343C73.5085 29.4888 73.7066 29.7239 73.8074 30.0395C73.9081 30.3552 73.8947 30.6776 73.7671 31.0067C73.6395 31.3358 73.3876 31.5877 73.0115 31.7623C72.5413 31.9907 72.041 32.1552 71.5103 32.256C70.9797 32.3567 70.4458 32.4071 69.9085 32.4071ZM69.4249 24.3675C68.8876 24.3675 68.4476 24.5287 68.1051 24.8511C67.7626 25.1735 67.5443 25.6436 67.4502 26.2615H71.198C71.1577 25.6302 70.9865 25.1567 70.6842 24.841C70.382 24.5253 69.9622 24.3675 69.4249 24.3675Z" fill="white"/>
<path d="M77.928 32.4071C77.1623 32.4071 76.4873 32.2661 75.9029 31.984C75.3186 31.7019 74.8619 31.3157 74.5328 30.8254C74.2037 30.3351 74.0391 29.7742 74.0391 29.1429C74.0391 28.4309 74.2272 27.8634 74.6033 27.4403C74.9794 27.0171 75.5839 26.7149 76.4168 26.5335C77.2496 26.3522 78.3578 26.2615 79.7414 26.2615H80.5071V25.9794C80.5071 25.4958 80.3828 25.1533 80.1343 24.9518C79.8858 24.7503 79.4593 24.6496 78.8548 24.6496C78.519 24.6496 78.153 24.6865 77.7567 24.7604C77.3604 24.8343 76.9138 24.9652 76.4168 25.1533C75.9735 25.3145 75.6041 25.3078 75.3085 25.1332C75.013 24.9585 74.8216 24.7067 74.7343 24.3776C74.647 24.0484 74.6805 23.7193 74.835 23.3902C74.9895 23.0611 75.2884 22.816 75.7317 22.6548C76.3765 22.4264 76.9709 22.2686 77.5149 22.1813C78.0589 22.0939 78.5593 22.0503 79.016 22.0503C80.6683 22.0503 81.894 22.4063 82.6933 23.1182C83.4926 23.8302 83.8922 24.9518 83.8922 26.4832V30.5534C83.8922 31.7623 83.3414 32.3668 82.2399 32.3668C81.1384 32.3668 80.6347 31.8295 80.5675 30.7548C80.3795 31.2653 80.0571 31.6683 79.6004 31.9638C79.1437 32.2593 78.5862 32.4071 77.928 32.4071ZM78.7339 30.0698C79.231 30.0698 79.6507 29.9086 79.9933 29.5862C80.3358 29.2638 80.5071 28.8407 80.5071 28.3168V27.9541H79.7414C78.9489 27.9541 78.3679 28.038 77.9985 28.2059C77.6291 28.3739 77.4444 28.6392 77.4444 29.0018C77.4444 29.3108 77.5552 29.566 77.7768 29.7675C77.9985 29.969 78.3175 30.0698 78.7339 30.0698Z" fill="white"/>
<path d="M89.0102 32.3668C88.0833 32.3668 87.4116 31.8966 86.9952 30.9563L84.1138 24.3675C83.8586 23.763 83.8586 23.2324 84.1138 22.7757C84.3691 22.3189 84.8862 22.0906 85.6653 22.0906C86.0818 22.0906 86.4243 22.188 86.693 22.3827C86.9616 22.5775 87.2034 22.957 87.4184 23.5212L89.1109 27.8936L90.9042 23.501C91.1191 22.9503 91.3609 22.5775 91.6296 22.3827C91.8982 22.188 92.2677 22.0906 92.7378 22.0906C93.1274 22.0906 93.4464 22.1947 93.6949 22.4029C93.9434 22.6111 94.0979 22.8898 94.1583 23.2391C94.2188 23.5884 94.155 23.9645 93.9669 24.3675L91.0251 30.9765C90.6221 31.9034 89.9505 32.3668 89.0102 32.3668Z" fill="white"/>
<path d="M99.4677 32.4071C98.2588 32.4071 97.2144 32.1955 96.3345 31.7724C95.4546 31.3493 94.7796 30.7481 94.3095 29.969C93.8393 29.1899 93.6042 28.2698 93.6042 27.2085C93.6042 26.1473 93.8292 25.3078 94.2792 24.5287C94.7293 23.7496 95.3472 23.1417 96.133 22.7051C96.9188 22.2686 97.8155 22.0503 98.823 22.0503C99.8304 22.0503 100.68 22.2585 101.412 22.6749C102.144 23.0913 102.708 23.6858 103.105 24.4581C103.501 25.2305 103.699 26.1339 103.699 27.1682C103.699 27.6921 103.39 27.9541 102.772 27.9541H97.0297C97.1505 28.5989 97.4192 29.0623 97.8356 29.3444C98.2521 29.6265 98.8297 29.7675 99.5685 29.7675C99.8506 29.7675 100.186 29.7339 100.576 29.6668C100.966 29.5996 101.335 29.4922 101.684 29.3444C102.114 29.1832 102.477 29.1798 102.772 29.3343C103.068 29.4888 103.266 29.7239 103.367 30.0395C103.467 30.3552 103.454 30.6776 103.326 31.0067C103.199 31.3358 102.947 31.5877 102.571 31.7623C102.101 31.9907 101.6 32.1552 101.07 32.256C100.539 32.3567 100.005 32.4071 99.4677 32.4071ZM98.9841 24.3675C98.4468 24.3675 98.0069 24.5287 97.6644 24.8511C97.3218 25.1735 97.1035 25.6436 97.0095 26.2615H100.757C100.717 25.6302 100.546 25.1567 100.243 24.841C99.9412 24.5253 99.5215 24.3675 98.9841 24.3675Z" fill="white"/>
<path d="M105.875 32.3666C104.653 32.3666 104.042 31.7621 104.042 30.5531V23.8836C104.042 22.6881 104.626 22.0903 105.795 22.0903C106.345 22.0903 106.772 22.2448 107.074 22.5538C107.376 22.8627 107.527 23.306 107.527 23.8836V23.9441C107.756 23.3665 108.125 22.9098 108.636 22.5739C109.146 22.2381 109.751 22.0635 110.449 22.05C110.839 22.0366 111.131 22.134 111.326 22.3422C111.52 22.5504 111.625 22.9366 111.638 23.5008C111.638 23.9844 111.537 24.3672 111.336 24.6493C111.134 24.9314 110.751 25.0993 110.187 25.1531L109.724 25.1934C109.012 25.2605 108.495 25.4587 108.172 25.7878C107.85 26.1169 107.689 26.6038 107.689 27.2486V30.5531C107.689 31.7621 107.084 32.3666 105.875 32.3666Z" fill="white"/>
<path d="M115.426 32.4071C114.822 32.4071 114.217 32.3601 113.613 32.2661C113.008 32.172 112.457 32.0175 111.96 31.8026C111.544 31.6414 111.272 31.4063 111.144 31.0974C111.017 30.7884 111.003 30.4795 111.104 30.1705C111.205 29.8616 111.389 29.6265 111.658 29.4653C111.927 29.3041 112.249 29.2907 112.625 29.425C113.176 29.6265 113.68 29.7709 114.137 29.8582C114.593 29.9455 115.03 29.9892 115.446 29.9892C115.943 29.9892 116.299 29.9186 116.514 29.7776C116.729 29.6366 116.837 29.4519 116.837 29.2235C116.837 29.022 116.766 28.8709 116.625 28.7701C116.484 28.6694 116.286 28.5921 116.031 28.5384L113.794 28.1757C112.961 28.0414 112.316 27.7392 111.86 27.269C111.403 26.7988 111.175 26.1876 111.175 25.4354C111.175 24.7369 111.369 24.1358 111.759 23.632C112.148 23.1283 112.692 22.7387 113.391 22.4634C114.09 22.188 114.889 22.0503 115.789 22.0503C116.393 22.0503 116.944 22.0973 117.441 22.1913C117.938 22.2854 118.422 22.4398 118.892 22.6548C119.254 22.8025 119.486 23.0309 119.587 23.3399C119.688 23.6488 119.681 23.9544 119.567 24.2567C119.453 24.5589 119.258 24.7873 118.982 24.9417C118.707 25.0962 118.375 25.0996 117.985 24.9518C117.542 24.7772 117.149 24.6496 116.806 24.569C116.464 24.4884 116.145 24.4481 115.849 24.4481C115.298 24.4481 114.909 24.5253 114.681 24.6798C114.452 24.8343 114.338 25.019 114.338 25.2339C114.338 25.5966 114.587 25.8182 115.084 25.8988L117.32 26.2817C118.18 26.416 118.841 26.7082 119.305 27.1582C119.768 27.6082 120 28.216 120 28.9817C120 30.0698 119.584 30.9127 118.751 31.5105C117.918 32.1082 116.81 32.4071 115.426 32.4071Z" fill="white"/>
<path d="M53.527 47.4116C52.9897 47.4116 52.5766 47.2638 52.2878 46.9683C51.999 46.6727 51.8546 46.2563 51.8546 45.719V34.5361C51.8546 33.9853 52.0091 33.5655 52.3181 33.2767C52.627 32.9879 53.0636 32.8435 53.6278 32.8435C54.0845 32.8435 54.4539 32.9342 54.736 33.1155C55.0181 33.2969 55.2733 33.5958 55.5017 34.0122L59.4711 41.1652L63.4405 34.0122C63.6823 33.5958 63.9409 33.2969 64.2163 33.1155C64.4917 32.9342 64.8644 32.8435 65.3346 32.8435C65.8585 32.8435 66.2682 32.9879 66.5637 33.2767C66.8592 33.5655 67.007 33.9853 67.007 34.5361V45.719C67.007 46.2563 66.8659 46.6727 66.5839 46.9683C66.3018 47.2638 65.8853 47.4116 65.3346 47.4116C64.7838 47.4116 64.3842 47.2638 64.0954 46.9683C63.8066 46.6727 63.6622 46.2563 63.6622 45.719V39.513L60.8413 44.4294C60.6532 44.725 60.4551 44.9466 60.2469 45.0944C60.0386 45.2421 59.7599 45.316 59.4107 45.316C59.0614 45.316 58.7995 45.2421 58.5845 45.0944C58.3696 44.9466 58.1748 44.725 58.0002 44.4294L55.1994 39.5936V45.719C55.1994 46.2563 55.0584 46.6727 54.7763 46.9683C54.4942 47.2638 54.0778 47.4116 53.527 47.4116Z" fill="white"/>
<path d="M83.6095 47.4115C83.0318 47.4115 82.5919 47.257 82.2897 46.948C81.9874 46.6391 81.8363 46.1891 81.8363 45.598V38.9286C81.8363 37.733 82.4206 37.1353 83.5893 37.1353C84.6505 37.1353 85.2281 37.6524 85.3222 38.6868C85.658 38.1763 86.1046 37.7834 86.6621 37.508C87.2196 37.2327 87.8408 37.095 88.5259 37.095C89.708 37.095 90.5845 37.4442 91.1554 38.1427C91.7263 38.8413 92.0118 39.9159 92.0118 41.3667V45.598C92.0118 46.1891 91.8573 46.6391 91.5483 46.948C91.2394 47.257 90.7961 47.4115 90.2185 47.4115C89.6409 47.4115 89.1976 47.257 88.8886 46.948C88.5796 46.6391 88.4252 46.1891 88.4252 45.598V41.5077C88.4252 40.9032 88.3211 40.4734 88.1129 40.2181C87.9046 39.9629 87.599 39.8353 87.1961 39.8353C86.6587 39.8353 86.2289 40.0066 85.9065 40.3491C85.5841 40.6916 85.4229 41.1517 85.4229 41.7293V45.598C85.4229 46.807 84.8184 47.4115 83.6095 47.4115Z" fill="white"/>
<path d="M98.2379 47.4518C97.0289 47.4518 95.9845 47.2402 95.1047 46.8171C94.2248 46.3939 93.5498 45.7928 93.0797 45.0137C92.6095 44.2346 92.3744 43.3144 92.3744 42.2532C92.3744 41.192 92.5994 40.3525 93.0494 39.5734C93.4994 38.7942 94.1173 38.1864 94.9032 37.7498C95.689 37.3133 96.5857 37.095 97.5931 37.095C98.6006 37.095 99.4502 37.3032 100.182 37.7196C100.914 38.136 101.479 38.7304 101.875 39.5028C102.271 40.2752 102.469 41.1786 102.469 42.2129C102.469 42.7368 102.16 42.9988 101.542 42.9988H95.7998C95.9207 43.6435 96.1894 44.107 96.6058 44.3891C97.0222 44.6712 97.5998 44.8122 98.3387 44.8122C98.6207 44.8122 98.9566 44.7786 99.3461 44.7115C99.7357 44.6443 100.105 44.5368 100.454 44.3891C100.884 44.2279 101.247 44.2245 101.542 44.379C101.838 44.5335 102.036 44.7685 102.137 45.0842C102.238 45.3999 102.224 45.7223 102.097 46.0514C101.969 46.3805 101.717 46.6324 101.341 46.807C100.871 47.0354 100.37 47.1999 99.8398 47.3007C99.3092 47.4014 98.7752 47.4518 98.2379 47.4518ZM97.7543 39.4122C97.217 39.4122 96.7771 39.5734 96.4345 39.8957C96.092 40.2181 95.8737 40.6883 95.7797 41.3062H99.5275C99.4872 40.6749 99.3159 40.2013 99.0137 39.8857C98.7114 39.57 98.2916 39.4122 97.7543 39.4122Z" fill="white"/>
<path d="M105.512 51.0386C105.095 51.0386 104.756 50.9312 104.494 50.7162C104.232 50.5013 104.075 50.2226 104.021 49.88C103.967 49.5375 104.028 49.1647 104.202 48.7617L105.23 46.5453L102.107 39.4124C101.838 38.8079 101.838 38.2773 102.107 37.8206C102.375 37.3639 102.899 37.1355 103.678 37.1355C104.095 37.1355 104.437 37.2329 104.706 37.4277C104.975 37.6224 105.216 38.0019 105.431 38.5661L107.124 42.9385L108.897 38.546C109.112 37.9952 109.357 37.6224 109.632 37.4277C109.908 37.2329 110.281 37.1355 110.751 37.1355C111.342 37.1355 111.762 37.3639 112.01 37.8206C112.259 38.2773 112.249 38.8079 111.98 39.4124L107.406 49.6886C107.164 50.2125 106.899 50.5685 106.61 50.7565C106.321 50.9446 105.955 51.0386 105.512 51.0386Z" fill="white"/>
<path d="M47.8771 26.1073C47.0637 26.519 46.1106 27.053 45.0843 27.7287C44.8023 27.9147 44.5087 28.1149 44.2072 28.3311C43.6772 27.2316 43.105 26.2376 42.5697 25.392C42.4159 25.1495 42.2628 24.9145 42.111 24.6874C43.3152 23.6598 44.5853 22.9183 45.9179 22.4676C46.2564 22.3528 46.5868 22.2621 46.9079 22.1909C47.4452 22.9371 47.7958 23.8882 47.8576 25.0199C47.8777 25.3853 47.8838 25.748 47.8771 26.1073Z" fill="#5DAA3A"/>
<path d="M46.4182 21.6167C46.1899 21.6765 45.9575 21.7457 45.721 21.825C44.3207 22.2964 42.9888 23.0668 41.7294 24.13C40.9913 23.0729 40.3123 22.2266 39.8233 21.6503C41.8631 19.7697 44.7149 19.9249 46.4182 21.6167Z" fill="#5DAA3A"/>
<path d="M41.223 24.5786C40.3365 25.3953 39.4882 26.3632 38.6795 27.4781C38.2987 26.9683 37.936 26.5163 37.6062 26.1261C37.9118 24.3939 38.5445 23.0768 39.3525 22.1365C39.8381 22.7114 40.5057 23.5483 41.223 24.5786Z" fill="#5DAA3A"/>
<path d="M43.6564 28.7354C42.7927 29.3856 41.8759 30.1546 40.9597 31.0533C40.6058 30.393 40.2465 29.7899 39.9012 29.2479C39.6299 28.8227 39.3592 28.4231 39.0946 28.0497C39.8938 26.926 40.7314 25.9555 41.6045 25.1394C41.7362 25.3375 41.8692 25.5417 42.0021 25.7513C42.5435 26.607 43.1238 27.6171 43.6564 28.7354Z" fill="#5DAA3A"/>
<path d="M45.9293 33.2746C45.936 33.3048 45.942 33.3351 45.9474 33.3653C45.9716 33.3189 45.9951 33.2726 46.0186 33.2256C45.989 33.2417 45.9595 33.2578 45.9293 33.2746Z" fill="#5DAA3A"/>
<path d="M47.8415 26.8838C47.6823 29.115 47.0234 31.2307 46.0186 33.2248C45.989 33.2416 45.9595 33.2577 45.9293 33.2745C45.6136 31.7438 45.0931 30.2803 44.496 28.9511C44.8197 28.7167 45.1334 28.5011 45.4343 28.3023C46.3 27.7314 47.1181 27.2619 47.8415 26.8838Z" fill="#5DAA3A"/>
<path d="M45.3168 33.6331C44.5618 34.0966 43.7317 34.6829 42.829 35.4258C42.3864 34.0482 41.8477 32.7916 41.2849 31.6766C42.1849 30.7793 43.0896 30.0103 43.9432 29.3601C44.5269 30.6786 45.0279 32.126 45.3168 33.6331Z" fill="#5DAA3A"/>
<path d="M45.3859 34.3894C44.7908 35.411 44.1084 36.3976 43.3609 37.35C43.2649 36.9336 43.1581 36.5266 43.0432 36.1283C43.9029 35.407 44.6854 34.8381 45.3859 34.3894Z" fill="#5DAA3A"/>
<path d="M42.8202 38.019C41.6186 39.4664 40.274 40.8292 38.8689 42.1033C39.286 41.3209 39.511 40.4168 39.599 39.4591C40.632 38.332 41.5938 37.3931 42.481 36.6106C42.6066 37.068 42.7208 37.5381 42.8202 38.019Z" fill="#5DAA3A"/>
<path d="M42.2721 35.8946C41.4514 36.6058 40.5742 37.4414 39.6433 38.4247C39.6399 37.0129 39.3955 35.5379 39.0697 34.198C39.6258 33.4706 40.2034 32.8003 40.7878 32.1851C41.3345 33.2913 41.853 34.5352 42.2721 35.8946Z" fill="#5DAA3A"/>
<path d="M38.2711 28.0584L37.4363 29.3587C37.4282 29.3399 37.4235 29.3298 37.4235 29.3298C37.3872 28.503 37.4094 27.738 37.4813 27.0334C37.7331 27.3444 37.9984 27.687 38.2711 28.0584Z" fill="#5DAA3A"/>
<path d="M40.4647 31.5517C39.9214 32.1146 39.3814 32.7231 38.8568 33.38C38.4807 32.0179 38.0508 30.8552 37.7607 30.1299C38.0636 29.6087 38.3726 29.1123 38.6882 28.6401C38.9018 28.9464 39.1188 29.2701 39.335 29.6093C39.7038 30.1869 40.0873 30.8364 40.4647 31.5517Z" fill="#5DAA3A"/>
<path d="M47.877 26.1074C47.8723 26.368 47.8602 26.6266 47.8414 26.8838L47.877 26.1074Z" fill="#5DAA3A"/>
<path d="M45.4316 34.3115C45.4343 34.3263 45.4363 34.3417 45.4376 34.3565C45.4208 34.3673 45.4034 34.378 45.3859 34.3894C45.4013 34.3639 45.4161 34.3377 45.4316 34.3115Z" fill="#5DAA3A"/>
<path d="M46.0186 33.2256C45.9951 33.2726 45.9716 33.3189 45.9474 33.3653C45.942 33.3351 45.936 33.3048 45.9293 33.2746C45.9595 33.2578 45.989 33.2417 46.0186 33.2256Z" fill="#5DAA3A"/>
<path d="M74.5429 47.9449C78.286 47.9449 81.3205 44.9104 81.3205 41.1672C81.3205 37.4241 78.286 34.3896 74.5429 34.3896C70.7997 34.3896 67.7653 37.4241 67.7653 41.1672C67.7653 44.9104 70.7997 47.9449 74.5429 47.9449Z" fill="#68CB3D"/>
<path d="M74.5429 46.7311C77.6157 46.7311 80.1068 44.2401 80.1068 41.1672C80.1068 38.0943 77.6157 35.6033 74.5429 35.6033C71.47 35.6033 68.9789 38.0943 68.9789 41.1672C68.9789 44.2401 71.47 46.7311 74.5429 46.7311Z" fill="#004B29"/>
<path d="M74.5831 44.8069C74.422 44.8069 74.289 44.7532 74.1842 44.6458C74.0794 44.5383 74.027 44.404 74.027 44.2428V43.8478C73.7261 43.821 73.4642 43.7739 73.2412 43.7068C73.0182 43.6396 72.8342 43.5711 72.6891 43.5013C72.5494 43.4368 72.4513 43.3468 72.3949 43.2313C72.3385 43.1157 72.317 42.9948 72.3304 42.8686C72.3439 42.7423 72.3882 42.6281 72.4634 42.526C72.5387 42.4239 72.6367 42.3554 72.7576 42.3205C72.8785 42.2856 73.0195 42.303 73.1807 42.3729C73.2882 42.4266 73.4494 42.4857 73.6643 42.5502C73.8793 42.6147 74.1506 42.6469 74.4784 42.6469C74.8061 42.6469 75.0452 42.5999 75.1796 42.5059C75.3139 42.4118 75.3811 42.3004 75.3811 42.1714C75.3811 42.0586 75.3354 41.9632 75.2441 41.8853C75.1527 41.8074 74.9861 41.7415 74.7443 41.6878L73.8336 41.4944C72.8449 41.2741 72.3506 40.7394 72.3506 39.8905C72.3506 39.4391 72.5024 39.0563 72.806 38.742C73.1096 38.4276 73.5166 38.2221 74.027 38.1254V37.6902C74.027 37.529 74.0794 37.3946 74.1842 37.2872C74.289 37.1797 74.422 37.126 74.5831 37.126C74.7443 37.126 74.8787 37.1797 74.9861 37.2872C75.0936 37.3946 75.1473 37.529 75.1473 37.6902V38.0932C75.3246 38.12 75.506 38.1603 75.6914 38.214C75.8767 38.2678 76.042 38.3403 76.187 38.4317C76.3429 38.5176 76.4409 38.6345 76.4812 38.7823C76.5215 38.93 76.5148 39.0724 76.4611 39.2094C76.4073 39.3464 76.312 39.4459 76.175 39.5076C76.0379 39.5694 75.8647 39.5573 75.6551 39.4714C75.5261 39.4176 75.3864 39.3733 75.236 39.3384C75.0855 39.3035 74.8921 39.286 74.6557 39.286C74.3709 39.286 74.152 39.337 73.9988 39.4391C73.8457 39.5412 73.7691 39.6729 73.7691 39.8341C73.7691 39.9415 73.8134 40.0315 73.9021 40.1041C73.9908 40.1766 74.1533 40.2397 74.3897 40.2935L75.3085 40.495C76.3079 40.7206 76.8076 41.2445 76.8076 42.0666C76.8076 42.5233 76.6545 42.9048 76.3482 43.2111C76.042 43.5174 75.6417 43.7162 75.1473 43.8075V44.2428C75.1473 44.404 75.0936 44.5383 74.9861 44.6458C74.8787 44.7532 74.7443 44.8069 74.5831 44.8069Z" fill="#FFF7AB"/>
<path d="M7.02943 32.0973C6.89511 32.0973 6.78428 32.0523 6.69697 31.963C6.60965 31.8737 6.566 31.7615 6.566 31.6272V31.2981C6.31547 31.2759 6.09719 31.2363 5.91114 31.1805C5.72509 31.1248 5.57196 31.0677 5.45106 31.0093C5.33487 30.9555 5.25293 30.8803 5.20591 30.7843C5.15889 30.6882 5.14076 30.5875 5.15218 30.482C5.1636 30.3766 5.20054 30.2819 5.263 30.1966C5.32546 30.1113 5.4074 30.0542 5.50815 30.0253C5.6089 29.9964 5.72644 30.0105 5.86077 30.069C5.9501 30.114 6.08443 30.163 6.26376 30.2167C6.44309 30.2705 6.66876 30.2973 6.94212 30.2973C7.21548 30.2973 7.41429 30.2584 7.52645 30.1798C7.63862 30.1012 7.69437 30.0085 7.69437 29.9011C7.69437 29.807 7.65608 29.7278 7.58019 29.6626C7.50429 29.5975 7.36526 29.5431 7.16376 29.4981L6.4048 29.3369C5.58069 29.1535 5.16897 28.7075 5.16897 28.0003C5.16897 27.6242 5.29524 27.3051 5.54845 27.0432C5.80166 26.7812 6.14084 26.61 6.566 26.5294V26.1667C6.566 26.0324 6.60965 25.9202 6.69697 25.8309C6.78428 25.7415 6.89511 25.6965 7.02943 25.6965C7.16376 25.6965 7.27593 25.7415 7.36526 25.8309C7.45459 25.9202 7.49959 26.0324 7.49959 26.1667V26.5025C7.64735 26.5247 7.79847 26.5583 7.95295 26.6033C8.10743 26.6483 8.24512 26.7087 8.36601 26.7846C8.49564 26.8565 8.57758 26.9539 8.61117 27.0768C8.64475 27.1997 8.63937 27.3186 8.59437 27.4327C8.54937 27.5469 8.47012 27.6295 8.35594 27.6813C8.24176 27.733 8.09735 27.7229 7.92273 27.651C7.81526 27.606 7.69907 27.5691 7.57347 27.5402C7.44787 27.5113 7.28668 27.4966 7.08988 27.4966C6.85279 27.4966 6.6701 27.5389 6.54249 27.6242C6.41488 27.7095 6.35107 27.8189 6.35107 27.9533C6.35107 28.0426 6.38801 28.1178 6.46189 28.1783C6.53577 28.2387 6.67145 28.2911 6.86824 28.3361L7.63392 28.504C8.46676 28.6921 8.88318 29.1287 8.88318 29.8137C8.88318 30.1946 8.75557 30.5122 8.50034 30.7675C8.24512 31.0227 7.91131 31.1886 7.49959 31.2645V31.6272C7.49959 31.7615 7.45459 31.8737 7.36526 31.963C7.27593 32.0523 7.16376 32.0973 7.02943 32.0973Z" fill="#FFF7AB"/>
<path d="M13.0119 33.3135C13.0119 33.3135 12.67 35.5474 12.8802 36.9142C10.3045 38.0708 8.41243 38.3596 6.04688 36.9142C3.68134 35.4688 4.70628 34.1806 5.88905 34.4962C5.65263 35.7052 5.86285 36.3359 6.41495 36.2835C6.96704 36.2311 5.78427 35.4426 6.54659 34.9167C7.30891 34.3908 7.25652 35.3895 8.09743 35.9416C8.93833 36.4937 9.77923 36.4145 9.43804 35.994C10.7525 35.7838 13.0125 33.3135 13.0125 33.3135H13.0119Z" fill="#68CB3D"/>
</g>
<defs>
<clipPath id="clip0_1_256">
<rect width="120" height="50.0767" fill="white" transform="translate(0 0.96167)"/>
</clipPath>
</defs>
</svg>
