<svg width="120" height="51" viewBox="0 0 120 51" fill="none" xmlns="http://www.w3.org/2000/svg">
<g clip-path="url(#clip0_1_6)">
<path d="M48.8738 21.8428C47.4056 18.2206 43.2904 16.7457 39.8952 18.8103C37.4988 20.2678 36.2818 22.8241 35.8707 25.5322C35.7901 26.0648 35.7881 26.6028 35.7256 27.1348C35.7142 27.2295 35.6867 27.3268 35.592 27.2342L33.8564 24.782C35.3273 23.3608 36.7956 21.5527 36.6659 19.3759C37.9448 20.0442 37.6499 18.2616 37.48 17.5201C37.1764 16.1996 36.365 15.661 35.9406 14.6266C35.6746 13.9778 35.5631 12.9757 35.3556 12.2564C34.9996 11.0239 34.5093 9.75653 33.8504 8.65637L33.845 8.56368C37.7936 6.91882 36.5719 0.816223 32.1296 1.1722C30.5526 1.29847 29.3537 2.58199 28.7069 3.92663C25.5696 2.42079 21.8118 2.18168 18.467 3.11998C17.8914 1.37906 16.2935 0.179501 14.4176 0.519355C11.3911 1.06809 10.9344 4.99186 12.9541 6.91613C12.1454 7.79062 11.557 8.84712 11.0641 9.92713C10.6832 10.7613 10.4361 11.6593 9.96188 12.4519C9.40105 13.3901 8.58433 13.8375 7.95835 14.6797C7.67156 15.0652 6.77222 16.2695 7.58425 16.4549C7.02611 18.0178 7.26656 19.8118 8.05306 21.2551C2.00755 20.4478 -1.94308 26.7848 0.989334 32.0472C1.43799 32.8525 2.05725 33.5832 2.78331 34.1488C3.00696 34.3227 3.67525 34.6908 3.78473 34.8265C3.90832 34.9796 4.05608 35.4551 4.19645 35.6909C5.71304 38.2398 10.3924 38.9007 12.8211 37.3754C12.0386 38.9396 12.2797 40.837 13.2247 42.2777C11.2662 42.1515 9.02359 43.4645 8.79926 45.5426C8.68105 46.6374 9.16128 46.9813 10.1775 47.1055C12.8318 47.4306 17.6556 47.2896 20.2777 46.7455C20.6303 46.6723 21.3833 46.3775 21.6526 46.3755C22.1274 46.3707 22.8474 46.6683 23.3613 46.6495C23.3599 47.1478 23.8119 47.4588 24.2411 47.6167C25.8779 48.2185 30.928 47.9384 32.7946 47.7107C34.5751 47.4937 37.6909 47.029 37.1509 44.5365L37.2301 44.4257C38.4075 43.5821 39.6554 42.8412 40.7939 41.9406C46.1039 37.7407 51.6746 28.7534 48.8731 21.8422L48.8738 21.8428ZM17.0464 3.69356L16.1451 4.1879C15.8321 3.76341 15.4728 3.33692 14.8844 3.47192C14.4935 3.56125 14.2873 4.08379 14.5868 4.37932C14.7454 4.53514 15.2075 4.51767 15.3069 4.79977L13.9374 5.80522C11.414 3.05483 15.5641 0.00554425 17.0464 3.69356ZM11.8029 32.0915C11.2454 32.8532 9.86583 34.0191 8.92821 34.1938C8.85568 34.2072 8.80933 34.2321 8.75896 34.1541L8.25455 33.3468C13.2744 32.0727 13.2933 24.5126 8.05641 23.5696C4.19242 22.8745 1.31508 26.6727 2.71413 30.2552C3.0795 31.1908 3.86466 32.2326 4.76131 32.6752C4.55377 32.9136 4.19713 33.0587 4.15615 33.4133C-0.374783 30.6831 0.907393 23.3292 6.28192 22.542C11.5806 21.7663 14.9361 27.8131 11.8029 32.0929V32.0915ZM35.821 42.3409C35.6141 42.6404 34.7833 43.4531 34.8639 43.7721C34.9197 43.9918 35.2205 44.2665 35.2514 44.6036C35.2944 45.0631 35.0076 45.4775 34.6852 45.7723C34.2144 46.2035 33.669 46.2532 33.0525 46.356C31.3881 46.6327 29.6855 46.6636 28.001 46.6434C28.1159 46.0551 28.2865 45.4137 28.7391 44.9979C27.9721 44.9106 27.4644 45.9866 27.32 46.6354L25.9854 46.5769C25.8054 46.3943 26.3474 44.8387 26.7914 44.8293C26.8108 44.7185 26.6214 44.7528 26.5556 44.7615C25.8537 44.8589 25.3077 45.8569 25.2459 46.5098C24.7381 46.3775 24.4104 46.4003 24.456 45.7575C24.5266 44.7689 25.3198 44.1617 26.1896 43.8588C27.5308 43.3913 29.1925 43.4712 30.5519 43.8225C30.5835 43.6774 30.4807 43.6701 30.3968 43.6089C29.7728 43.1576 28.6404 42.6881 27.8815 42.5645C27.682 42.5323 27.2588 42.5981 27.1601 42.4799C26.3568 40.3985 27.105 38.0994 28.9474 36.877C30.2618 36.0045 31.7669 35.797 33.307 36.0979C33.0854 35.7648 32.6824 35.6788 32.3325 35.5612C32.2633 35.5377 32.2069 35.6116 32.231 35.4598C32.2411 35.396 32.7025 34.8278 32.7979 34.6834C33.3144 33.8976 33.7067 32.2393 33.444 31.2936C33.4185 31.2016 33.436 31.0847 33.3077 31.0612C33.129 31.7214 32.7516 32.8693 32.2901 33.369C31.6104 34.1051 29.9723 34.991 29.0273 35.345C28.0568 35.7077 26.0552 36.0858 25.3863 36.8757C25.1492 37.1557 24.5299 38.4144 23.9718 37.8771C23.4654 37.3888 24.2304 36.2148 24.3063 35.6956C23.4049 35.8924 22.8649 37.0395 23.0301 37.9113C22.0072 37.5534 22.2228 36.3383 22.5801 35.5465C22.6433 35.4074 23.0301 34.8379 23.0288 34.7875C23.0261 34.6834 22.9166 34.715 22.8454 34.7358C22.4814 34.8399 22.1892 35.2449 21.928 35.4995L21.4189 36.3666C21.2577 34.4833 22.5868 33.3132 24.1726 32.6402C25.2506 32.1829 26.5858 32.0432 27.1843 30.8832C27.283 30.6918 27.5295 30.0672 27.5295 29.8851V28.6426C27.1661 29.1255 26.9156 29.689 26.52 30.1518C25.5374 31.3003 24.3754 31.2365 23.1625 31.8987C21.7661 32.6611 20.4342 34.1071 20.4356 35.7842C20.4356 36.4686 20.68 37.4788 21.4175 37.7105C21.4477 37.8267 21.2812 37.7401 21.2805 37.8119C21.2778 37.9758 22.0421 38.6716 22.2013 38.7737C22.6668 39.0719 22.9059 38.9007 23.3183 38.9873C23.3418 38.992 23.5641 39.2452 23.6803 39.309C24.2875 39.6449 24.8577 39.5764 25.4185 39.1868C25.4286 38.7852 25.1855 38.6253 25.6489 38.3808C25.5811 38.6092 25.8417 38.7684 25.845 38.9497C25.8477 39.1042 25.6543 39.5045 25.6126 39.7208C25.4212 40.7195 25.4702 41.8452 25.7832 42.8103C25.1116 43.0387 24.4131 43.3718 23.9906 43.9562C21.5042 44.1798 17.7658 43.4592 16.1914 41.3576C14.4371 39.0162 13.9051 35.7063 14.1657 32.8397C14.251 31.9001 14.9657 27.9448 15.5036 27.3436C15.5648 27.2758 15.6736 27.2946 15.7381 27.2281C15.8247 27.1388 16.225 26.6444 16.2955 26.6256C16.6851 26.5195 17.1579 26.6827 17.5226 26.5256C16.6784 26.0527 15.775 25.69 14.9254 25.2273C14.3444 24.9109 13.3618 24.3817 12.8553 24.0062C12.5625 23.7899 12.3315 23.3957 12.0507 23.1317C11.0533 22.1934 9.96793 21.8529 9.23314 20.6433C8.35866 19.2019 8.02955 17.2515 8.86844 15.7221C9.26941 14.9907 9.93031 14.5084 10.4374 13.8657C11.7585 12.1933 12.0285 9.91974 13.3705 8.06734C17.1196 2.89229 24.3741 2.81908 29.5438 5.80455C29.8897 4.65603 30.4713 3.26774 31.6481 2.77005C33.9652 1.79078 35.7861 4.62715 34.2802 6.47687C33.71 7.17673 32.7449 7.57166 31.863 7.68785C31.7663 7.70061 31.6655 7.62539 31.6937 7.78524C32.9101 9.29712 33.7819 11.308 34.1996 13.2054C34.3031 13.6743 34.3393 14.4769 34.5019 14.851C34.6967 15.299 35.3972 15.9357 35.6988 16.4079C36.0238 16.917 36.3174 17.5591 36.3946 18.1629C36.0628 17.9835 35.7122 17.8042 35.3206 17.8277C35.2877 17.8519 35.3878 17.9137 35.3878 17.9278V19.3383C35.3878 19.4061 34.878 20.4095 34.7947 20.5586C33.5152 22.855 31.3351 24.422 28.9856 25.4959C28.5961 25.6739 28.1421 25.8707 27.731 25.9547C27.7135 26.1279 27.7297 26.0621 27.8291 26.0903C27.9097 26.1138 28.2777 26.2227 28.3019 26.2227H30.0146L29.6123 26.3563C30.7407 26.3415 32.0376 26.4779 33.0625 26.9695C33.3917 27.1274 33.6556 27.396 34.0096 27.5001C37.128 32.0492 39.3129 37.2847 35.8197 42.3375L35.821 42.3409ZM14.0307 26.4282L14.5667 26.6619L14.2329 27.2335L14.0307 26.4282Z" fill="#004B29"/>
<path d="M27.5309 28.644C27.1675 29.1269 26.917 29.6904 26.5214 30.1532C25.5388 31.3017 24.3768 31.2379 23.1638 31.9001C21.7675 32.6624 20.4356 34.1085 20.4369 35.7856C20.4369 36.47 20.6814 37.4802 21.4189 37.7119C21.4491 37.8281 21.2825 37.7414 21.2819 37.8133C21.2792 37.9772 22.0435 38.673 22.2027 38.7751C22.6681 39.0733 22.9072 38.902 23.3196 38.9887C23.3431 38.9934 23.5655 39.2466 23.6817 39.3104C24.2888 39.6462 24.8591 39.5777 25.4199 39.1882C25.43 38.7865 25.1868 38.6267 25.6503 38.3822C25.5824 38.6106 25.843 38.7697 25.8464 38.9511C25.8491 39.1056 25.6556 39.5059 25.614 39.7221C25.4226 40.7209 25.4716 41.8465 25.7846 42.8117C25.1129 43.0401 24.4144 43.3732 23.992 43.9575C21.5055 44.1812 17.7671 43.4605 16.1928 41.3589C14.4384 39.0176 13.9065 35.7077 14.1671 32.8411C14.2524 31.9015 14.967 27.9461 15.505 27.345C15.5661 27.2772 15.6749 27.296 15.7394 27.2295C15.8261 27.1401 16.2264 26.6458 16.2969 26.627C16.6864 26.5209 17.1593 26.6841 17.524 26.5269C16.6797 26.0541 15.7764 25.6914 14.9267 25.2286C14.3457 24.9123 13.3631 24.383 12.8567 24.0076C12.5639 23.7913 12.3328 23.397 12.0521 23.1331C11.0547 22.1948 9.96929 21.8543 9.23451 20.6446C8.36002 19.2033 8.03091 17.2528 8.8698 15.7235C9.27077 14.992 9.93168 14.5098 10.4388 13.867C11.7599 12.1946 12.0299 9.9211 13.3719 8.0687C17.121 2.89365 24.3755 2.82044 29.5451 5.80591C29.891 4.6574 30.4727 3.2691 31.6494 2.77141C33.9666 1.79214 35.7874 4.62851 34.2816 6.47823C33.7114 7.17809 32.7462 7.57302 31.8643 7.68921C31.7676 7.70198 31.6669 7.62675 31.6951 7.7866C32.9114 9.29848 33.7832 11.3094 34.201 13.2068C34.3044 13.6756 34.3407 14.4782 34.5033 14.8523C34.698 15.3003 35.3986 15.9371 35.7001 16.4092C36.0252 16.9183 36.3187 17.5604 36.396 18.1642C36.0642 17.9849 35.7136 17.8056 35.322 17.8291C35.2891 17.8533 35.3892 17.9151 35.3892 17.9292V19.3396C35.3892 19.4075 34.8794 20.4109 34.7961 20.56C33.5166 22.8564 31.3364 24.4233 28.987 25.4973C28.5974 25.6753 28.1434 25.8721 27.7324 25.956C27.7149 26.1293 27.731 26.0635 27.8304 26.0917C27.911 26.1152 28.2791 26.224 28.3033 26.224H30.016L29.6137 26.3577C30.742 26.3429 32.039 26.4792 33.0639 26.9709C33.393 27.1287 33.657 27.3974 34.0109 27.5015C37.1294 32.0506 39.3143 37.2861 35.821 42.3389C35.6142 42.6384 34.7833 43.4511 34.8639 43.7702C34.9197 43.9898 35.2206 44.2645 35.2515 44.6017C35.2944 45.0611 35.0077 45.4755 34.6853 45.7703C34.2144 46.2015 33.6691 46.2512 33.0525 46.354C31.3881 46.6307 29.6855 46.6616 28.001 46.6414C28.1159 46.0531 28.2865 45.4117 28.7392 44.9959C27.9721 44.9086 27.4644 45.9846 27.32 46.6334L25.9854 46.575C25.8054 46.3923 26.3474 44.8367 26.7914 44.8273C26.8109 44.7165 26.6215 44.7508 26.5556 44.7595C25.8538 44.8569 25.3077 45.8549 25.2459 46.5078C24.7382 46.3755 24.4104 46.3983 24.4561 45.7555C24.5266 44.7669 25.3198 44.1597 26.1896 43.8568C27.5309 43.3893 29.1925 43.4693 30.5519 43.8205C30.5835 43.6754 30.4807 43.6681 30.3968 43.6069C29.7728 43.1556 28.6404 42.6861 27.8815 42.5625C27.682 42.5303 27.2589 42.5961 27.1601 42.4779C26.3568 40.3965 27.105 38.0974 28.9474 36.875C30.2618 36.0025 31.767 35.795 33.307 36.0959C33.0854 35.7628 32.6824 35.6768 32.3325 35.5592C32.2633 35.5357 32.2069 35.6096 32.2311 35.4578C32.2411 35.394 32.7026 34.8258 32.7979 34.6814C33.3144 33.8956 33.7067 32.2373 33.4441 31.2916C33.4185 31.1996 33.436 31.0827 33.3077 31.0592C33.1291 31.7194 32.7516 32.8673 32.2902 33.367C31.6105 34.1031 29.9723 34.989 29.0273 35.343C28.0568 35.7057 26.0553 36.0838 25.3863 36.8737C25.1492 37.1537 24.5299 38.4124 23.9718 37.8751C23.4654 37.3868 24.2304 36.2128 24.3063 35.6936C23.4049 35.8904 22.8649 37.0376 23.0302 37.9093C22.0072 37.5514 22.2228 36.3363 22.5802 35.5445C22.6433 35.4054 23.0302 34.8359 23.0288 34.7855C23.0255 34.6814 22.9166 34.713 22.8455 34.7338C22.4814 34.8379 22.1893 35.2429 21.928 35.4975L21.4189 36.3646C21.2577 34.4813 22.5869 33.3112 24.1726 32.6383C25.2506 32.1809 26.5859 32.0412 27.1843 30.8812C27.283 30.6898 27.5295 30.0652 27.5295 29.8832V28.6406L27.5309 28.644ZM33.2835 5.31427C33.6456 4.95494 33.2835 4.40217 32.8664 4.33433C32.1243 4.21411 31.4976 4.76217 31.1457 5.35994C30.7937 5.95771 30.4357 6.83824 31.2908 7.15122C31.3727 6.58838 31.775 5.94897 32.2848 5.69308C32.5763 5.54666 33.0908 5.50502 33.2829 5.31427H33.2835ZM15.6252 7.03369C14.9664 7.13779 13.9401 7.88198 13.7923 8.55833C13.5445 9.69274 14.5378 8.70743 14.8824 8.50728C15.1934 8.32661 15.5762 8.1278 15.9443 8.15735C16.2532 8.1822 16.7207 8.50124 16.89 7.96056C17.1109 7.256 16.2022 6.94234 15.6252 7.03369ZM24.9954 8.34541C25.1338 8.46967 25.8457 8.2843 26.0875 8.289C27.0043 8.30646 28.0877 8.92841 28.6539 9.62692L28.8748 9.60476C29.214 9.43281 28.8722 8.71415 28.7277 8.47303C28.0984 7.41921 26.3038 6.62129 25.2238 7.42996C24.9927 7.60324 24.7563 8.13116 24.9954 8.34474V8.34541ZM16.761 10.7351C15.2525 9.17221 13.1898 10.676 12.7862 12.4552C12.5336 13.5688 12.4933 15.4071 13.8292 15.8148C12.8977 14.898 12.8641 13.149 13.4585 12.0529C14.3545 10.4013 16.5635 10.3805 16.7838 12.4572C14.7709 10.7432 13.1872 13.9443 14.5029 15.5112C15.0564 16.1708 15.5823 15.9303 16.3143 15.7483C15.7837 17.416 17.2761 18.627 18.6349 19.2402C18.6833 19.9381 18.4374 20.3625 17.7913 20.6164C16.7194 21.0382 15.7911 20.6863 15.1168 19.7997C14.9556 19.5875 14.6285 18.8527 14.5352 18.7694C14.3209 18.5786 14.2013 18.7096 14.1718 18.9427C14.0475 19.9454 14.7682 21.1027 15.6635 21.5352C15.8865 21.6427 16.3278 21.6998 16.4789 21.8617C16.6576 22.0538 17.0283 23.0659 17.2191 23.4051C18.2265 25.2011 19.6901 26.3046 21.8541 26.0225C24.6394 25.6598 26.0647 22.2297 26.6577 19.844L27.2817 20.1711C27.8828 19.6043 26.9398 18.711 26.3468 18.5746C26.0217 18.5001 24.9464 18.588 24.8523 18.9501C24.8288 19.2745 25.3527 19.2745 25.5831 19.3074C24.6952 21.0671 22.4237 21.5957 20.6626 20.9025C19.911 20.607 19.4503 20.1268 19.3368 19.3074C21.5828 19.0951 24.1223 16.1023 21.0333 14.8228C19.7243 14.2808 18.1453 14.3573 16.9195 15.0753C16.8819 15.0317 17.1116 14.7046 17.1526 14.6038C17.5817 13.5561 17.5885 11.5915 16.7603 10.7331L16.761 10.7351ZM27.6652 16.688C29.5102 16.3414 29.6304 14.18 29.206 12.6964C28.8231 11.3604 27.5268 10.3913 26.1197 10.7439C24.3305 11.1925 23.5896 13.0718 23.7031 14.7731C23.7743 15.8424 24.0625 16.2285 24.9766 16.7236C25.0612 16.7692 25.1089 16.8626 25.2473 16.8216C25.2137 16.7135 25.07 16.6947 24.9753 16.5906C23.6991 15.1835 23.9772 12.1456 25.9491 11.5129C28.5054 10.6928 29.5969 14.2935 28.2979 16.0109C28.1132 16.2554 27.8345 16.4287 27.6659 16.688H27.6652ZM26.9103 12.5425C25.1344 12.609 24.757 15.8773 26.2185 16.6913C26.9183 17.0809 27.4738 16.8397 27.9318 16.2507C28.8063 15.125 28.7069 12.4754 26.9103 12.5425ZM23.501 26.8983C22.8052 27.1207 21.9844 27.4652 21.2496 27.5008C20.7613 27.5243 20.2838 27.3813 19.8069 27.3336C20.9427 28.4391 22.6782 28.2531 23.5003 26.8977L23.501 26.8983Z" fill="#68CB3D"/>
<path d="M8.25454 33.3462C13.2744 32.0721 13.2932 24.512 8.05641 23.569C4.19241 22.8738 1.31507 26.672 2.71412 30.2546C3.07949 31.1902 3.86465 32.2319 4.7613 32.6745C4.55376 32.913 4.19712 33.058 4.15615 33.4127C-0.374791 30.6824 0.907385 23.3285 6.28191 22.5414C11.5805 21.7656 14.9361 27.8125 11.8029 32.0922C11.2454 32.8538 9.86582 34.0198 8.9282 34.1945C8.85567 34.2079 8.80932 34.2327 8.75895 34.1548L8.25454 33.3475V33.3462Z" fill="#B1EB54"/>
<path d="M14.5868 4.37866C14.7454 4.53448 15.2074 4.51702 15.3069 4.79911L13.9374 5.80457C11.414 3.05417 15.5641 0.00488853 17.0464 3.69291L16.1451 4.18724C15.8321 3.76276 15.4727 3.33626 14.8844 3.47126C14.4935 3.56059 14.2873 4.08314 14.5868 4.37866Z" fill="#68CB3D"/>
<path d="M14.2329 27.2335L14.0307 26.4282L14.5667 26.6619L14.2329 27.2335Z" fill="white"/>
<path d="M16.761 10.7351C17.5891 11.5935 17.5824 13.5581 17.1532 14.6058C17.1122 14.7066 16.8825 15.033 16.9201 15.0773C18.1459 14.3594 19.7249 14.2828 21.034 14.8248C24.1229 16.1043 21.5834 19.0972 19.3374 19.3094C19.4509 20.1295 19.9117 20.609 20.6632 20.9046C22.4243 21.5977 24.6958 21.0691 25.5837 19.3094C25.3534 19.2765 24.8301 19.2765 24.853 18.9521C24.947 18.5901 26.0223 18.5021 26.3474 18.5766C26.9405 18.713 27.8841 19.6063 27.2823 20.1731L26.6584 19.846C26.0653 22.2317 24.6401 25.6618 21.8547 26.0245C19.6907 26.3066 18.2272 25.2031 17.2197 23.4071C17.0289 23.0679 16.6582 22.0558 16.4795 21.8637C16.3284 21.7018 15.8871 21.6447 15.6642 21.5373C14.7689 21.1047 14.0482 19.9475 14.1724 18.9447C14.2013 18.711 14.3215 18.5807 14.5358 18.7714C14.6291 18.8547 14.9562 19.5895 15.1174 19.8017C15.7918 20.6876 16.7193 21.0402 17.7919 20.6184C18.4381 20.3639 18.6839 19.9394 18.6355 19.2422C17.2768 18.6297 15.7844 17.418 16.315 15.7503C15.5829 15.9324 15.057 16.1728 14.5036 15.5132C13.1885 13.9463 14.7722 10.7445 16.7845 12.4593C16.5648 10.3825 14.3551 10.4033 13.4591 12.0549C12.8647 13.1511 12.8976 14.9 13.8299 15.8168C12.4933 15.4091 12.5336 13.5708 12.7868 12.4572C13.1905 10.678 15.2531 9.17423 16.7616 10.7372L16.761 10.7351ZM15.8254 12.6722C15.3236 12.8213 15.4956 13.8388 16.1316 13.6548C16.6495 13.505 16.4836 12.4767 15.8254 12.6722ZM19.4717 23.0693L18.9002 21.3922C18.5381 21.7414 17.986 21.6494 17.5226 21.6595C17.5555 22.8342 18.0331 23.8524 19.3099 24.0035C19.7867 24.06 20.7042 24.0082 21.0595 23.6523C21.2959 23.4152 21.6969 22.3043 21.4195 22.0954C21.1791 21.914 19.8129 21.8523 19.4711 21.4587C19.5261 21.8885 19.5799 22.3949 19.5792 22.8248C19.5792 22.8799 19.5658 23.0901 19.4711 23.0706L19.4717 23.0693Z" fill="#004B29"/>
<path d="M26.9103 12.5425C28.7076 12.4754 28.807 15.125 27.9318 16.2507C27.4738 16.8397 26.9183 17.0809 26.2185 16.6913C24.757 15.8779 25.1344 12.609 26.9103 12.5425ZM27.1776 13.274C26.6268 13.3727 26.6692 14.3506 27.2857 14.3184C27.9621 14.2828 27.823 13.1584 27.1776 13.274Z" fill="#004B29"/>
<path d="M27.6652 16.688C27.8338 16.4287 28.1125 16.2554 28.2972 16.0109C29.5962 14.2942 28.5054 10.6928 25.9484 11.5129C23.9765 12.1456 23.6984 15.1835 24.9745 16.5906C25.0686 16.6947 25.213 16.7135 25.2466 16.8216C25.1082 16.8626 25.0605 16.7692 24.9759 16.7236C24.0618 16.2279 23.7736 15.8417 23.7024 14.7731C23.5889 13.0718 24.3298 11.1925 26.119 10.7439C27.5255 10.3913 28.8224 11.3604 29.2053 12.6964C29.6297 14.18 29.5102 16.3414 27.6645 16.688H27.6652Z" fill="#004B29"/>
<path d="M24.9954 8.34541C24.757 8.13116 24.9927 7.60324 25.2237 7.43063C26.3038 6.62197 28.0977 7.41988 28.7277 8.4737C28.8715 8.71415 29.214 9.43281 28.8748 9.60543L28.6539 9.62759C28.0877 8.9284 27.0043 8.30713 26.0875 8.28967C25.845 8.28497 25.1337 8.47034 24.9954 8.34609V8.34541Z" fill="#004B29"/>
<path d="M33.2835 5.31427C33.0914 5.50501 32.5769 5.54666 32.2855 5.69307C31.7763 5.94897 31.3734 6.58771 31.2914 7.15122C30.4364 6.83823 30.7931 5.96039 31.1463 5.35994C31.4996 4.75948 32.1249 4.21411 32.8671 4.33433C33.2835 4.40217 33.6462 4.95493 33.2842 5.31427H33.2835Z" fill="#004B29"/>
<path d="M15.6252 7.03368C16.2028 6.94234 17.1109 7.256 16.8899 7.96056C16.7207 8.50056 16.2532 8.18153 15.9443 8.15735C15.5762 8.1278 15.1934 8.32661 14.8824 8.50728C14.5378 8.70743 13.5445 9.69341 13.7923 8.55832C13.9401 7.88197 14.9663 7.13779 15.6252 7.03368Z" fill="#004B29"/>
<path d="M23.5009 26.8983C22.6782 28.2531 20.9433 28.4398 19.8076 27.3342C20.2844 27.3819 20.762 27.525 21.2503 27.5015C21.9844 27.4659 22.8051 27.1207 23.5016 26.899L23.5009 26.8983Z" fill="#004B29"/>
<path d="M19.4717 23.0693C19.5664 23.0888 19.5799 22.8792 19.5799 22.8235C19.5799 22.3936 19.5268 21.8879 19.4717 21.4573C19.8136 21.8509 21.1797 21.9127 21.4202 22.094C21.6976 22.3036 21.2966 23.4145 21.0602 23.6509C20.7042 24.0076 19.7874 24.0586 19.3105 24.0022C18.0337 23.8511 17.5555 22.8335 17.5233 21.6581C17.9867 21.6487 18.5381 21.7401 18.9008 21.3908L19.4724 23.0679L19.4717 23.0693Z" fill="white"/>
<path d="M15.8254 12.6722C16.4836 12.4767 16.6495 13.505 16.1317 13.6548C15.4956 13.8388 15.3237 12.8213 15.8254 12.6722Z" fill="white"/>
<path d="M27.1776 13.274C27.823 13.1578 27.9614 14.2821 27.2857 14.3184C26.6691 14.3513 26.6275 13.3734 27.1776 13.274Z" fill="white"/>
<path d="M13.3053 38.542C13.3053 38.542 14.2517 43.9038 19.6477 45.5856C16.3539 46.2163 11.868 45.9711 11.868 45.9711C11.868 45.9711 11.4126 44.6749 13.1999 44.2537C11.7283 43.9031 10.9922 44.8031 10.8518 46.0175C9.80066 45.9355 9.48499 46.0175 9.48499 46.0175C9.48499 46.0175 9.90544 42.3261 15.4069 43.7628C13.4094 41.0997 13.1555 39.9082 13.3046 38.5414L13.3053 38.542Z" fill="#68CB3D"/>
<path d="M53.7486 31.6852C52.4591 31.6852 51.8143 31.0471 51.8143 29.771V19.394C51.8143 18.1179 52.4591 17.4798 53.7486 17.4798H58.6651C60.1964 17.4798 61.3819 17.8123 62.2215 18.4772C63.061 19.1422 63.4808 20.0321 63.4808 21.147C63.4808 21.8858 63.2961 22.5306 62.9267 23.0814C62.5573 23.6321 62.0435 24.0418 61.3853 24.3105C62.1778 24.5523 62.789 24.9586 63.2189 25.5295C63.6487 26.1004 63.8636 26.809 63.8636 27.6553C63.8636 28.9046 63.417 29.8885 62.5237 30.6072C61.6304 31.3258 60.4114 31.6852 58.8666 31.6852H53.7486ZM55.3606 23.1217H58.0001C58.6718 23.1217 59.1655 23.0008 59.4811 22.759C59.7968 22.5172 59.9546 22.1478 59.9546 21.6508C59.9546 21.1537 59.7968 20.7877 59.4811 20.5526C59.1655 20.3175 58.6718 20.2 58.0001 20.2H55.3606V23.1217ZM55.3606 28.965H58.3628C59.0479 28.965 59.5483 28.834 59.864 28.5721C60.1796 28.3102 60.3375 27.9172 60.3375 27.3934C60.3375 26.8695 60.1796 26.4799 59.864 26.2247C59.5483 25.9695 59.0479 25.8418 58.3628 25.8418H55.3606V28.965Z" fill="#004B29"/>
<path d="M69.9085 31.9068C68.6995 31.9068 67.6551 31.6953 66.7752 31.2721C65.8954 30.849 65.2204 30.2479 64.7502 29.4687C64.2801 28.6896 64.045 27.7695 64.045 26.7083C64.045 25.6471 64.27 24.8075 64.72 24.0284C65.17 23.2493 65.7879 22.6414 66.5737 22.2049C67.3596 21.7683 68.2562 21.55 69.2637 21.55C70.2712 21.55 71.1208 21.7582 71.8529 22.1747C72.585 22.5911 73.1492 23.1855 73.5454 23.9579C73.9417 24.7303 74.1399 25.6336 74.1399 26.668C74.1399 27.1919 73.8309 27.4538 73.213 27.4538H67.4704C67.5913 28.0986 67.8599 28.562 68.2764 28.8441C68.6928 29.1262 69.2704 29.2673 70.0092 29.2673C70.2913 29.2673 70.6271 29.2337 71.0167 29.1665C71.4062 29.0993 71.7757 28.9919 72.1249 28.8441C72.5548 28.6829 72.9175 28.6796 73.213 28.834C73.5085 28.9885 73.7066 29.2236 73.8074 29.5393C73.9081 29.8549 73.8947 30.1773 73.7671 30.5064C73.6395 30.8356 73.3876 31.0874 73.0115 31.262C72.5413 31.4904 72.041 31.655 71.5103 31.7557C70.9797 31.8565 70.4458 31.9068 69.9085 31.9068ZM69.4249 23.8672C68.8876 23.8672 68.4476 24.0284 68.1051 24.3508C67.7626 24.6732 67.5443 25.1433 67.4502 25.7613H71.198C71.1577 25.1299 70.9865 24.6564 70.6842 24.3407C70.382 24.025 69.9622 23.8672 69.4249 23.8672Z" fill="#004B29"/>
<path d="M77.928 31.9068C77.1623 31.9068 76.4873 31.7658 75.9029 31.4837C75.3186 31.2016 74.8619 30.8154 74.5328 30.3251C74.2037 29.8348 74.0391 29.274 74.0391 28.6426C74.0391 27.9307 74.2272 27.3631 74.6033 26.94C74.9794 26.5169 75.5839 26.2146 76.4168 26.0333C77.2496 25.8519 78.3578 25.7613 79.7414 25.7613H80.5071V25.4792C80.5071 24.9956 80.3828 24.653 80.1343 24.4515C79.8858 24.25 79.4593 24.1493 78.8548 24.1493C78.519 24.1493 78.153 24.1862 77.7567 24.2601C77.3604 24.334 76.9138 24.465 76.4168 24.653C75.9735 24.8142 75.6041 24.8075 75.3085 24.6329C75.013 24.4583 74.8216 24.2064 74.7343 23.8773C74.647 23.5482 74.6805 23.2191 74.835 22.89C74.9895 22.5608 75.2884 22.3157 75.7317 22.1545C76.3765 21.9261 76.9709 21.7683 77.5149 21.681C78.0589 21.5937 78.5593 21.55 79.016 21.55C80.6683 21.55 81.894 21.906 82.6933 22.6179C83.4926 23.3299 83.8922 24.4515 83.8922 25.9829V30.0531C83.8922 31.262 83.3414 31.8665 82.2399 31.8665C81.1384 31.8665 80.6347 31.3292 80.5675 30.2546C80.3795 30.765 80.0571 31.168 79.6004 31.4635C79.1437 31.7591 78.5862 31.9068 77.928 31.9068ZM78.7339 29.5695C79.231 29.5695 79.6507 29.4083 79.9933 29.0859C80.3358 28.7635 80.5071 28.3404 80.5071 27.8165V27.4538H79.7414C78.9489 27.4538 78.3679 27.5378 77.9985 27.7057C77.6291 27.8736 77.4444 28.1389 77.4444 28.5016C77.4444 28.8105 77.5552 29.0658 77.7768 29.2673C77.9985 29.4687 78.3175 29.5695 78.7339 29.5695Z" fill="#004B29"/>
<path d="M89.0102 31.8665C88.0833 31.8665 87.4116 31.3964 86.9952 30.4561L84.1138 23.8672C83.8586 23.2627 83.8586 22.7321 84.1138 22.2754C84.3691 21.8187 84.8862 21.5903 85.6653 21.5903C86.0818 21.5903 86.4243 21.6877 86.693 21.8825C86.9616 22.0773 87.2034 22.4567 87.4184 23.0209L89.1109 27.3934L90.9042 23.0008C91.1191 22.45 91.3609 22.0773 91.6296 21.8825C91.8982 21.6877 92.2677 21.5903 92.7378 21.5903C93.1274 21.5903 93.4464 21.6944 93.6949 21.9026C93.9434 22.1108 94.0979 22.3896 94.1583 22.7388C94.2188 23.0881 94.155 23.4642 93.9669 23.8672L91.0251 30.4762C90.6221 31.4031 89.9505 31.8665 89.0102 31.8665Z" fill="#004B29"/>
<path d="M99.4677 31.9068C98.2588 31.9068 97.2144 31.6953 96.3345 31.2721C95.4546 30.849 94.7796 30.2479 94.3095 29.4687C93.8393 28.6896 93.6042 27.7695 93.6042 26.7083C93.6042 25.6471 93.8292 24.8075 94.2792 24.0284C94.7293 23.2493 95.3472 22.6414 96.133 22.2049C96.9188 21.7683 97.8155 21.55 98.823 21.55C99.8304 21.55 100.68 21.7582 101.412 22.1747C102.144 22.5911 102.708 23.1855 103.105 23.9579C103.501 24.7303 103.699 25.6336 103.699 26.668C103.699 27.1919 103.39 27.4538 102.772 27.4538H97.0297C97.1505 28.0986 97.4192 28.562 97.8356 28.8441C98.2521 29.1262 98.8297 29.2673 99.5685 29.2673C99.8506 29.2673 100.186 29.2337 100.576 29.1665C100.966 29.0993 101.335 28.9919 101.684 28.8441C102.114 28.6829 102.477 28.6796 102.772 28.834C103.068 28.9885 103.266 29.2236 103.367 29.5393C103.467 29.8549 103.454 30.1773 103.326 30.5064C103.199 30.8356 102.947 31.0874 102.571 31.262C102.101 31.4904 101.6 31.655 101.07 31.7557C100.539 31.8565 100.005 31.9068 99.4677 31.9068ZM98.9841 23.8672C98.4468 23.8672 98.0069 24.0284 97.6644 24.3508C97.3218 24.6732 97.1035 25.1433 97.0095 25.7613H100.757C100.717 25.1299 100.546 24.6564 100.243 24.3407C99.9412 24.025 99.5215 23.8672 98.9841 23.8672Z" fill="#004B29"/>
<path d="M105.875 31.8665C104.653 31.8665 104.042 31.262 104.042 30.0531V23.3836C104.042 22.1881 104.626 21.5903 105.795 21.5903C106.345 21.5903 106.772 21.7448 107.074 22.0538C107.376 22.3627 107.527 22.806 107.527 23.3836V23.4441C107.756 22.8664 108.125 22.4097 108.636 22.0739C109.146 21.7381 109.751 21.5635 110.449 21.55C110.839 21.5366 111.131 21.634 111.326 21.8422C111.52 22.0504 111.625 22.4366 111.638 23.0008C111.638 23.4844 111.537 23.8672 111.336 24.1493C111.134 24.4314 110.751 24.5993 110.187 24.653L109.724 24.6933C109.012 24.7605 108.495 24.9586 108.172 25.2877C107.85 25.6168 107.689 26.1038 107.689 26.7486V30.0531C107.689 31.262 107.084 31.8665 105.875 31.8665Z" fill="#004B29"/>
<path d="M115.426 31.9068C114.822 31.9068 114.217 31.8598 113.613 31.7658C113.008 31.6718 112.457 31.5173 111.96 31.3023C111.544 31.1412 111.272 30.9061 111.144 30.5971C111.017 30.2882 111.003 29.9792 111.104 29.6702C111.205 29.3613 111.389 29.1262 111.658 28.965C111.927 28.8038 112.249 28.7904 112.625 28.9247C113.176 29.1262 113.68 29.2706 114.137 29.3579C114.593 29.4452 115.03 29.4889 115.446 29.4889C115.943 29.4889 116.299 29.4184 116.514 29.2773C116.729 29.1363 116.837 28.9516 116.837 28.7232C116.837 28.5217 116.766 28.3706 116.625 28.2699C116.484 28.1691 116.286 28.0919 116.031 28.0381L113.794 27.6754C112.961 27.5411 112.316 27.2389 111.86 26.7687C111.403 26.2986 111.175 25.6874 111.175 24.9351C111.175 24.2366 111.369 23.6355 111.759 23.1317C112.148 22.628 112.692 22.2385 113.391 21.9631C114.09 21.6877 114.889 21.55 115.789 21.55C116.393 21.55 116.944 21.597 117.441 21.6911C117.938 21.7851 118.422 21.9396 118.892 22.1545C119.254 22.3023 119.486 22.5306 119.587 22.8396C119.688 23.1485 119.681 23.4541 119.567 23.7564C119.453 24.0586 119.258 24.287 118.982 24.4415C118.707 24.5959 118.375 24.5993 117.985 24.4515C117.542 24.2769 117.149 24.1493 116.806 24.0687C116.464 23.9881 116.145 23.9478 115.849 23.9478C115.298 23.9478 114.909 24.025 114.681 24.1795C114.452 24.334 114.338 24.5187 114.338 24.7336C114.338 25.0963 114.587 25.318 115.084 25.3986L117.32 25.7814C118.18 25.9157 118.841 26.2079 119.305 26.6579C119.768 27.1079 120 27.7157 120 28.4814C120 29.5695 119.584 30.4124 118.751 31.0102C117.918 31.6079 116.81 31.9068 115.426 31.9068Z" fill="#004B29"/>
<path d="M53.527 46.9115C52.9897 46.9115 52.5766 46.7637 52.2878 46.4682C51.999 46.1726 51.8546 45.7562 51.8546 45.2189V34.036C51.8546 33.4852 52.0091 33.0654 52.3181 32.7766C52.627 32.4878 53.0636 32.3434 53.6278 32.3434C54.0845 32.3434 54.4539 32.4341 54.736 32.6154C55.0181 32.7968 55.2733 33.0957 55.5017 33.5121L59.4711 40.6651L63.4405 33.5121C63.6823 33.0957 63.9409 32.7968 64.2163 32.6154C64.4917 32.4341 64.8644 32.3434 65.3346 32.3434C65.8585 32.3434 66.2682 32.4878 66.5637 32.7766C66.8592 33.0654 67.007 33.4852 67.007 34.036V45.2189C67.007 45.7562 66.8659 46.1726 66.5839 46.4682C66.3018 46.7637 65.8853 46.9115 65.3346 46.9115C64.7838 46.9115 64.3842 46.7637 64.0954 46.4682C63.8066 46.1726 63.6622 45.7562 63.6622 45.2189V39.0129L60.8413 43.9293C60.6532 44.2249 60.4551 44.4465 60.2469 44.5943C60.0386 44.742 59.7599 44.8159 59.4107 44.8159C59.0614 44.8159 58.7995 44.742 58.5845 44.5943C58.3696 44.4465 58.1748 44.2249 58.0002 43.9293L55.1994 39.0935V45.2189C55.1994 45.7562 55.0584 46.1726 54.7763 46.4682C54.4942 46.7637 54.0778 46.9115 53.527 46.9115Z" fill="#004B29"/>
<path d="M83.6095 46.9114C83.0318 46.9114 82.5919 46.757 82.2897 46.448C81.9874 46.1391 81.8363 45.689 81.8363 45.098V38.4285C81.8363 37.233 82.4206 36.6352 83.5893 36.6352C84.6505 36.6352 85.2281 37.1524 85.3222 38.1867C85.658 37.6763 86.1046 37.2834 86.6621 37.008C87.2196 36.7326 87.8408 36.5949 88.5259 36.5949C89.708 36.5949 90.5845 36.9442 91.1554 37.6427C91.7263 38.3412 92.0118 39.4159 92.0118 40.8666V45.098C92.0118 45.689 91.8573 46.1391 91.5483 46.448C91.2394 46.757 90.7961 46.9114 90.2185 46.9114C89.6409 46.9114 89.1976 46.757 88.8886 46.448C88.5796 46.1391 88.4252 45.689 88.4252 45.098V41.0077C88.4252 40.4032 88.3211 39.9733 88.1129 39.7181C87.9046 39.4629 87.599 39.3353 87.1961 39.3353C86.6587 39.3353 86.2289 39.5065 85.9065 39.8491C85.5841 40.1916 85.4229 40.6517 85.4229 41.2293V45.098C85.4229 46.307 84.8184 46.9114 83.6095 46.9114Z" fill="#004B29"/>
<path d="M98.2379 46.9517C97.0289 46.9517 95.9845 46.7402 95.1047 46.317C94.2248 45.8939 93.5498 45.2928 93.0797 44.5137C92.6095 43.7346 92.3744 42.8144 92.3744 41.7532C92.3744 40.692 92.5994 39.8524 93.0494 39.0733C93.4994 38.2942 94.1173 37.6864 94.9032 37.2498C95.689 36.8132 96.5857 36.5949 97.5931 36.5949C98.6006 36.5949 99.4502 36.8031 100.182 37.2196C100.914 37.636 101.479 38.2304 101.875 39.0028C102.271 39.7752 102.469 40.6786 102.469 41.7129C102.469 42.2368 102.16 42.4987 101.542 42.4987H95.7998C95.9207 43.1435 96.1894 43.6069 96.6058 43.889C97.0222 44.1711 97.5998 44.3122 98.3387 44.3122C98.6207 44.3122 98.9566 44.2786 99.3461 44.2114C99.7357 44.1443 100.105 44.0368 100.454 43.889C100.884 43.7278 101.247 43.7245 101.542 43.879C101.838 44.0334 102.036 44.2685 102.137 44.5842C102.238 44.8999 102.224 45.2223 102.097 45.5514C101.969 45.8805 101.717 46.1323 101.341 46.307C100.871 46.5353 100.37 46.6999 99.8398 46.8006C99.3092 46.9014 98.7752 46.9517 98.2379 46.9517ZM97.7543 38.9121C97.217 38.9121 96.7771 39.0733 96.4345 39.3957C96.092 39.7181 95.8737 40.1883 95.7797 40.8062H99.5275C99.4872 40.1748 99.3159 39.7013 99.0137 39.3856C98.7114 39.07 98.2916 38.9121 97.7543 38.9121Z" fill="#004B29"/>
<path d="M105.512 50.5384C105.095 50.5384 104.756 50.4309 104.494 50.216C104.232 50.001 104.075 49.7223 104.021 49.3798C103.967 49.0372 104.028 48.6645 104.202 48.2615L105.23 46.045L102.107 38.9121C101.838 38.3076 101.838 37.777 102.107 37.3203C102.375 36.8636 102.899 36.6352 103.678 36.6352C104.095 36.6352 104.437 36.7326 104.706 36.9274C104.975 37.1222 105.216 37.5017 105.431 38.0658L107.124 42.4383L108.897 38.0457C109.112 37.4949 109.357 37.1222 109.632 36.9274C109.908 36.7326 110.281 36.6352 110.751 36.6352C111.342 36.6352 111.762 36.8636 112.01 37.3203C112.259 37.777 112.249 38.3076 111.98 38.9121L107.406 49.1883C107.164 49.7122 106.899 50.0682 106.61 50.2563C106.321 50.4443 105.955 50.5384 105.512 50.5384Z" fill="#004B29"/>
<path d="M47.8771 25.6074C47.0637 26.0191 46.1106 26.5531 45.0843 27.2288C44.8023 27.4148 44.5087 27.615 44.2072 27.8312C43.6772 26.7318 43.105 25.7377 42.5697 24.8921C42.4159 24.6496 42.2628 24.4146 42.111 24.1876C43.3152 23.1599 44.5853 22.4184 45.9179 21.9678C46.2564 21.8529 46.5868 21.7622 46.9079 21.691C47.4452 22.4372 47.7958 23.3883 47.8576 24.52C47.8777 24.8854 47.8838 25.2481 47.8771 25.6074Z" fill="#5DAA3A"/>
<path d="M46.4182 21.1168C46.1899 21.1766 45.9575 21.2457 45.721 21.325C44.3207 21.7965 42.9888 22.5669 41.7294 23.6301C40.9913 22.5729 40.3123 21.7266 39.8233 21.1504C41.8631 19.2697 44.7149 19.4249 46.4182 21.1168Z" fill="#5DAA3A"/>
<path d="M41.223 24.0787C40.3365 24.8955 39.4882 25.8633 38.6795 26.9783C38.2987 26.4685 37.936 26.0165 37.6062 25.6262C37.9118 23.894 38.5445 22.5769 39.3525 21.6366C39.8381 22.2116 40.5057 23.0484 41.223 24.0787Z" fill="#5DAA3A"/>
<path d="M43.6564 28.2356C42.7927 28.8857 41.8759 29.6548 40.9597 30.5534C40.6058 29.8932 40.2465 29.2901 39.9012 28.748C39.6299 28.3229 39.3592 27.9233 39.0946 27.5498C39.8938 26.4262 40.7314 25.4556 41.6045 24.6396C41.7362 24.8377 41.8692 25.0419 42.0021 25.2514C42.5435 26.1071 43.1238 27.1173 43.6564 28.2356Z" fill="#5DAA3A"/>
<path d="M45.9293 32.7746C45.936 32.8048 45.942 32.835 45.9474 32.8652C45.9716 32.8189 45.9951 32.7726 46.0186 32.7255C45.989 32.7417 45.9595 32.7578 45.9293 32.7746Z" fill="#5DAA3A"/>
<path d="M47.8415 26.3839C47.6823 28.6151 47.0234 30.7308 46.0186 32.7249C45.989 32.7417 45.9595 32.7578 45.9293 32.7746C45.6136 31.2439 45.0931 29.7804 44.496 28.4512C44.8197 28.2168 45.1334 28.0012 45.4343 27.8024C46.3 27.2315 47.1181 26.762 47.8415 26.3839Z" fill="#5DAA3A"/>
<path d="M45.3168 33.1332C44.5618 33.5967 43.7317 34.183 42.829 34.9259C42.3864 33.5483 41.8477 32.2917 41.2849 31.1767C42.1849 30.2794 43.0896 29.5104 43.9432 28.8602C44.5269 30.1787 45.0279 31.6261 45.3168 33.1332Z" fill="#5DAA3A"/>
<path d="M45.3859 33.8895C44.7908 34.9111 44.1084 35.8977 43.3609 36.8501C43.2649 36.4337 43.1581 36.0267 43.0432 35.6284C43.9029 34.9071 44.6854 34.3382 45.3859 33.8895Z" fill="#5DAA3A"/>
<path d="M42.8202 37.5191C41.6186 38.9665 40.274 40.3293 38.8689 41.6034C39.286 40.8209 39.511 39.9169 39.599 38.9591C40.632 37.8321 41.5938 36.8931 42.481 36.1107C42.6066 36.568 42.7208 37.0382 42.8202 37.5191Z" fill="#5DAA3A"/>
<path d="M42.2721 35.3947C41.4514 36.1059 40.5742 36.9415 39.6433 37.9248C39.6399 36.513 39.3955 35.038 39.0697 33.6981C39.6258 32.9707 40.2034 32.3004 40.7878 31.6852C41.3345 32.7914 41.853 34.0353 42.2721 35.3947Z" fill="#5DAA3A"/>
<path d="M38.2711 27.5586L37.4363 28.8589C37.4282 28.8401 37.4235 28.83 37.4235 28.83C37.3872 28.0032 37.4094 27.2382 37.4813 26.5336C37.7331 26.8446 37.9984 27.1871 38.2711 27.5586Z" fill="#5DAA3A"/>
<path d="M40.4647 31.0518C39.9214 31.6146 39.3814 32.2232 38.8568 32.88C38.4807 31.5179 38.0508 30.3553 37.7607 29.6299C38.0636 29.1087 38.3726 28.6124 38.6882 28.1402C38.9018 28.4465 39.1188 28.7702 39.335 29.1094C39.7038 29.687 40.0873 30.3365 40.4647 31.0518Z" fill="#5DAA3A"/>
<path d="M47.877 25.6074C47.8723 25.868 47.8602 26.1266 47.8414 26.3838L47.877 25.6074Z" fill="#5DAA3A"/>
<path d="M45.4316 33.8116C45.4343 33.8264 45.4363 33.8418 45.4376 33.8566C45.4208 33.8673 45.4034 33.8781 45.3859 33.8895C45.4013 33.864 45.4161 33.8378 45.4316 33.8116Z" fill="#5DAA3A"/>
<path d="M46.0186 32.7255C45.9951 32.7726 45.9716 32.8189 45.9474 32.8652C45.942 32.835 45.936 32.8048 45.9293 32.7746C45.9595 32.7578 45.989 32.7417 46.0186 32.7255Z" fill="#5DAA3A"/>
<path d="M74.5429 47.4447C78.286 47.4447 81.3205 44.4103 81.3205 40.6671C81.3205 36.924 78.286 33.8895 74.5429 33.8895C70.7997 33.8895 67.7653 36.924 67.7653 40.6671C67.7653 44.4103 70.7997 47.4447 74.5429 47.4447Z" fill="#68CB3D"/>
<path d="M74.5429 46.2311C77.6157 46.2311 80.1068 43.74 80.1068 40.6671C80.1068 37.5943 77.6157 35.1032 74.5429 35.1032C71.47 35.1032 68.9789 37.5943 68.9789 40.6671C68.9789 43.74 71.47 46.2311 74.5429 46.2311Z" fill="#004B29"/>
<path d="M74.5831 44.3068C74.422 44.3068 74.289 44.2531 74.1842 44.1456C74.0794 44.0381 74.027 43.9038 74.027 43.7426V43.3477C73.7261 43.3208 73.4642 43.2738 73.2412 43.2066C73.0182 43.1395 72.8342 43.071 72.6891 43.0011C72.5494 42.9366 72.4513 42.8466 72.3949 42.7311C72.3385 42.6156 72.317 42.4947 72.3304 42.3684C72.3439 42.2421 72.3882 42.128 72.4634 42.0259C72.5387 41.9238 72.6367 41.8553 72.7576 41.8204C72.8785 41.7854 73.0195 41.8029 73.1807 41.8727C73.2882 41.9265 73.4494 41.9856 73.6643 42.0501C73.8793 42.1145 74.1506 42.1468 74.4784 42.1468C74.8061 42.1468 75.0452 42.0998 75.1796 42.0057C75.3139 41.9117 75.3811 41.8002 75.3811 41.6712C75.3811 41.5584 75.3354 41.463 75.2441 41.3851C75.1527 41.3072 74.9861 41.2414 74.7443 41.1877L73.8336 40.9942C72.8449 40.7739 72.3506 40.2393 72.3506 39.3903C72.3506 38.939 72.5024 38.5561 72.806 38.2418C73.1096 37.9275 73.5166 37.722 74.027 37.6252V37.19C74.027 37.0288 74.0794 36.8945 74.1842 36.787C74.289 36.6796 74.422 36.6258 74.5831 36.6258C74.7443 36.6258 74.8787 36.6796 74.9861 36.787C75.0936 36.8945 75.1473 37.0288 75.1473 37.19V37.593C75.3246 37.6199 75.506 37.6602 75.6914 37.7139C75.8767 37.7676 76.042 37.8402 76.187 37.9315C76.3429 38.0175 76.4409 38.1343 76.4812 38.2821C76.5215 38.4299 76.5148 38.5723 76.4611 38.7093C76.4073 38.8463 76.312 38.9457 76.175 39.0075C76.0379 39.0693 75.8647 39.0572 75.6551 38.9712C75.5261 38.9175 75.3864 38.8732 75.236 38.8382C75.0855 38.8033 74.8921 38.7858 74.6557 38.7858C74.3709 38.7858 74.152 38.8369 73.9988 38.939C73.8457 39.0411 73.7691 39.1727 73.7691 39.3339C73.7691 39.4414 73.8134 39.5314 73.9021 39.6039C73.9908 39.6765 74.1533 39.7396 74.3897 39.7933L75.3085 39.9948C76.3079 40.2205 76.8076 40.7444 76.8076 41.5665C76.8076 42.0232 76.6545 42.4047 76.3482 42.711C76.042 43.0172 75.6417 43.216 75.1473 43.3074V43.7426C75.1473 43.9038 75.0936 44.0381 74.9861 44.1456C74.8787 44.2531 74.7443 44.3068 74.5831 44.3068Z" fill="#FFF7AB"/>
<path d="M7.02943 31.5972C6.89511 31.5972 6.78428 31.5522 6.69697 31.4629C6.60965 31.3735 6.566 31.2614 6.566 31.127V30.7979C6.31547 30.7758 6.09719 30.7362 5.91114 30.6804C5.72509 30.6247 5.57196 30.5676 5.45106 30.5091C5.33487 30.4554 5.25293 30.3802 5.20591 30.2841C5.15889 30.1881 5.14076 30.0873 5.15218 29.9819C5.1636 29.8764 5.20054 29.7817 5.263 29.6964C5.32546 29.6111 5.4074 29.554 5.50815 29.5252C5.6089 29.4963 5.72644 29.5104 5.86077 29.5688C5.9501 29.6138 6.08443 29.6629 6.26376 29.7166C6.44309 29.7703 6.66876 29.7972 6.94212 29.7972C7.21548 29.7972 7.41429 29.7582 7.52645 29.6796C7.63862 29.6011 7.69437 29.5084 7.69437 29.4009C7.69437 29.3069 7.65608 29.2276 7.58019 29.1625C7.50429 29.0973 7.36526 29.0429 7.16376 28.9979L6.4048 28.8367C5.58069 28.6534 5.16897 28.2074 5.16897 27.5001C5.16897 27.124 5.29524 26.805 5.54845 26.5431C5.80166 26.2811 6.14084 26.1098 6.566 26.0292V25.6665C6.566 25.5322 6.60965 25.4201 6.69697 25.3307C6.78428 25.2414 6.89511 25.1964 7.02943 25.1964C7.16376 25.1964 7.27593 25.2414 7.36526 25.3307C7.45459 25.4201 7.49959 25.5322 7.49959 25.6665V26.0024C7.64735 26.0245 7.79847 26.0581 7.95295 26.1031C8.10743 26.1481 8.24512 26.2086 8.36601 26.2845C8.49564 26.3563 8.57758 26.4537 8.61117 26.5766C8.64475 26.6995 8.63937 26.8184 8.59437 26.9326C8.54937 27.0468 8.47012 27.1294 8.35594 27.1811C8.24176 27.2328 8.09735 27.2228 7.92273 27.1509C7.81526 27.1059 7.69907 27.069 7.57347 27.0401C7.44787 27.0112 7.28668 26.9964 7.08988 26.9964C6.85279 26.9964 6.6701 27.0387 6.54249 27.124C6.41488 27.2093 6.35107 27.3188 6.35107 27.4531C6.35107 27.5425 6.38801 27.6177 6.46189 27.6781C6.53577 27.7386 6.67145 27.791 6.86824 27.836L7.63392 28.0039C8.46676 28.1919 8.88318 28.6285 8.88318 29.3136C8.88318 29.6944 8.75557 30.0121 8.50034 30.2673C8.24512 30.5226 7.91131 30.6885 7.49959 30.7644V31.127C7.49959 31.2614 7.45459 31.3735 7.36526 31.4629C7.27593 31.5522 7.16376 31.5972 7.02943 31.5972Z" fill="#FFF7AB"/>
<path d="M13.0119 32.8136C13.0119 32.8136 12.67 35.0475 12.8802 36.4143C10.3045 37.5708 8.41243 37.8596 6.04688 36.4143C3.68134 34.9689 4.70628 33.6807 5.88905 33.9963C5.65263 35.2053 5.86285 35.836 6.41495 35.7836C6.96704 35.7312 5.78427 34.9427 6.54659 34.4168C7.30891 33.8909 7.25652 34.8896 8.09743 35.4417C8.93833 35.9938 9.77923 35.9146 9.43804 35.4941C10.7525 35.2839 13.0125 32.8136 13.0125 32.8136H13.0119Z" fill="#68CB3D"/>
</g>
<defs>
<clipPath id="clip0_1_6">
<rect width="120" height="50.0767" fill="white" transform="translate(0 0.461632)"/>
</clipPath>
</defs>
</svg>
